<?xml version="1.0" encoding="UTF-8" standalone="no"?>
<!-- Created with Inkscape (http://www.inkscape.org/) -->

<svg
   xmlns:dc="http://purl.org/dc/elements/1.1/"
   xmlns:cc="http://creativecommons.org/ns#"
   xmlns:rdf="http://www.w3.org/1999/02/22-rdf-syntax-ns#"
   xmlns:svg="http://www.w3.org/2000/svg"
   xmlns="http://www.w3.org/2000/svg"
   xmlns:sodipodi="http://sodipodi.sourceforge.net/DTD/sodipodi-0.dtd"
   xmlns:inkscape="http://www.inkscape.org/namespaces/inkscape"
   width="210mm"
   height="297mm"
   viewBox="0 0 744.09448819 1052.3622047"
   id="svg2"
   version="1.1"
   inkscape:version="0.91 r13725"
   sodipodi:docname="drawing.svg">
  <defs
     id="defs4" />
  <sodipodi:namedview
     id="base"
     pagecolor="#ffffff"
     bordercolor="#666666"
     borderopacity="1.0"
     inkscape:pageopacity="0.0"
     inkscape:pageshadow="2"
     inkscape:zoom="0.35"
     inkscape:cx="375"
     inkscape:cy="594.52475"
     inkscape:document-units="px"
     inkscape:current-layer="layer1"
     showgrid="false"
     inkscape:window-width="1301"
     inkscape:window-height="744"
     inkscape:window-x="65"
     inkscape:window-y="24"
     inkscape:window-maximized="1" />
  <metadata
     id="metadata7">
    <rdf:RDF>
      <cc:Work
         rdf:about="">
        <dc:format>image/svg+xml</dc:format>
        <dc:type
           rdf:resource="http://purl.org/dc/dcmitype/StillImage" />
        <dc:title></dc:title>
      </cc:Work>
    </rdf:RDF>
  </metadata>
  <g
     inkscape:label="Layer 1"
     inkscape:groupmode="layer"
     id="layer1">
    <path
       sodipodi:type="star"
       style="fill:#ffff00;fill-rule:evenodd;stroke:#000000;stroke-width:1px;stroke-linecap:butt;stroke-linejoin:miter;stroke-opacity:1"
       id="path3355"
       sodipodi:sides="19"
       sodipodi:cx="228.57143"
       sodipodi:cy="426.64792"
       sodipodi:r1="236.31525"
       sodipodi:r2="118.15763"
       sodipodi:arg1="-1.314088"
       sodipodi:arg2="-1.148741"
       inkscape:flatsided="false"
       inkscape:rounded="0"
       inkscape:randomized="0"
       d="m 288.57142,198.07649 -11.59834,120.78226 82.5644,-88.91566 -50.18785,110.47196 106.9617,-57.28934 -83.33872,88.19032 119.76804,-19.45484 -107.45855,56.35188 119.59565,20.4879 -119.93357,18.40685 106.46322,58.21044 -119.41193,-21.53284 81.79385,89.62499 L 307.83915,514.27128 356.1,625.59857 275.09295,535.26179 284.59098,656.22733 237.30542,544.48231 207.01137,661.9776 198.57142,540.93364 131.76813,642.22625 163.08839,525.00034 67.01503,599.11364 134.70147,498.40903 19.769071,537.3117 116.48681,464.04129 -4.8499119,463.51762 110.41825,425.62139 -4.1740712,385.72813 117.15343,387.31274 21.723356,312.37294 135.96248,353.26667 70.03598,251.40121 l 94.77116,75.77138 -29.27876,-117.7524 65.03327,102.43802 10.54179,-120.87905 28.24802,118.00391 z"
       inkscape:transform-center-x="-18.54102"
       inkscape:transform-center-y="-4.1930716" />
    <path
       style="fill:#ff5555"
       id="path3363"
       d="m 252.37608,394.32049 c -0.81077,0.48122 -1.61438,0.9747 -2.4323,1.44365 -12.96794,7.43507 -25.90637,14.92229 -38.92499,22.26826 -11.22047,6.33133 44.73342,-25.58647 33.53041,-19.22429 -13.03866,7.40465 -25.97738,14.98483 -39.03742,22.35172 -1.74246,0.98288 -3.62554,1.69845 -5.3814,2.65721 -2.53227,1.56127 -4.96616,2.9807 -7.94289,3.42505 -0.69845,0.10426 -1.44699,-0.0299 -2.10696,0.22134 -0.70589,0.26874 -1.24192,0.86003 -1.86287,1.29004 -12.98555,8.78227 4.29203,-2.9731 31.78311,-17.90258 1.03082,-0.55981 -1.76356,1.54721 -2.63982,2.32704 -2.0411,1.81647 -4.01016,3.60936 -5.79097,5.68123 -0.94242,2.14468 -2.96154,0.6256 0.49215,0.34438 0.98622,-0.0803 3.2099,-0.48288 4.17305,-0.64753 0.075,0.008 3.83776,0.41392 3.98571,0.50256 1.99252,1.19371 6.48608,6.49424 8.20538,8.35412 3.45655,4.67 6.04195,9.80884 9.90501,14.18439 1.68182,2.28959 1.77836,5.43109 4.01739,7.27749 2.24901,1.59769 3.06697,4.84204 4.01951,7.34123 0.54529,0.47457 2.45422,4.29226 2.94855,3.90141 1.96563,0.0468 0.96558,0.0315 2.26484,3.19836 0,0 -37.67846,19.89956 -37.67846,19.89956 l 0,0 c 2.39458,2.03244 -0.33659,-0.1068 -0.68225,-0.30441 -1.65681,-1.82523 -2.73089,-4.0583 -4.12511,-6.09034 -0.69721,-2.18818 -1.29217,-4.28299 -3.17961,-5.716 -1.94589,-2.32277 -2.78308,-4.9644 -4.00518,-7.68181 -3.45269,-4.52053 -6.07016,-9.53728 -9.53356,-14.03755 -3.36363,-3.41226 -5.18486,-6.4144 -10.27326,-5.68961 -4.06035,-0.11418 -12.35568,-2.11774 -9.34976,-7.81702 1.78263,-3.45108 4.81927,-7.02622 8.15792,-9.11882 34.9029,-21.87649 24.9625,-17.27539 40.51353,-24.31214 4.20484,-1.06435 7.91523,-2.86401 11.65828,-5.05745 1.77827,-0.86449 7.02013,-3.63475 5.31571,-2.63246 -11.03959,6.4919 -44.33519,25.66396 -33.21489,19.31131 129.94747,-74.23459 -23.12389,12.45661 7.59279,-4.47148 0,0 39.59836,-15.27686 39.59836,-15.27686 z"
       inkscape:connector-curvature="0" />
    <path
       style="fill:#ff5555"
       id="path3365"
       d="m 236.52865,354.85793 c 2.79977,4.59212 6.54907,8.02961 11.5845,9.91686 4.55359,2.42122 9.56292,3.79569 14.14557,6.12388 4.01619,2.14482 8.45066,3.40567 12.76298,4.85083 3.19488,2.65986 7.21817,3.11209 10.97555,4.46598 4.30736,1.73287 9.05253,3.11997 13.06653,5.49559 2.82959,1.47323 5.68018,2.33543 8.15629,4.33081 1.81749,2.54994 3.24966,5.16153 5.87164,6.94246 3.48208,1.00344 4.70582,7.66385 5.68511,10.68463 1.74229,4.76308 2.41288,9.82918 2.74776,14.86523 0.66044,6.16611 -1.47615,11.85398 -3.54373,17.53811 -1.87877,4.24321 -4.26037,8.23492 -7.50724,11.5574 -3.98618,3.90314 -8.55933,7.27086 -13.09176,10.54036 -12.92257,7.46839 -25.84513,14.93677 -38.7677,22.40515 -0.92441,0.51006 -3.68766,2.05796 -2.77324,1.53018 11.06524,-6.38665 22.13377,-12.76776 33.22621,-19.10706 0.86453,-0.49408 -1.68014,1.07024 -2.54107,1.57057 -39.11396,22.73107 -24.30676,18.22273 -41.49914,23.15828 -0.97805,0.38046 -1.9561,0.76092 -2.93416,1.14138 -1.14347,0.303 -2.32791,0.48026 -3.43041,0.90901 -7.94351,3.08912 -63.78298,35.86687 23.79547,-14.03571 -5.54491,3.62056 -10.11627,8.43683 -14.49998,13.34345 -4.44067,4.0565 -8.18306,8.81795 -12.88874,12.57539 -4.8967,5.26854 -93.36362,51.64066 -7.21998,4.47186 2.08694,-1.14273 -3.07319,2.89789 -5.60626,5.44403 -3.16208,3.767 -7.38958,6.26743 -11.23403,9.23868 -3.16325,1.68666 -5.47101,4.46151 -8.24155,6.62063 -2.07513,2.32005 -4.16961,4.53903 -6.38763,6.705 -1.31348,1.51402 -2.59007,2.01284 -2.79845,4.00995 -1.78401,1.6048 -1.99231,4.02845 -3.22018,5.91404 -0.97186,1.74882 -2.18633,3.21647 -2.53673,5.20145 -0.25751,2.3085 -1.24996,4.63143 -2.44633,6.63341 -0.35459,3.22531 -1.91027,6.06919 -2.82892,9.1454 -0.22488,0.56876 -0.44977,1.13753 -0.67465,1.7063 0,0 -38.66896,17.61416 -38.66896,17.61416 l 0,0 c 0.27247,-0.49288 0.54494,-0.98576 0.81741,-1.47865 1.61458,-3.11243 0.14583,0.13675 1.09438,-3.56674 0.32392,-1.26471 1.4024,-2.28649 1.79511,-3.40363 0.16414,-0.46696 0.0811,-0.98661 0.12167,-1.47991 0.0333,-2.16493 1.03541,-4.74886 2.61004,-6.26944 0.16863,-2.5655 0.14027,-4.68629 1.79805,-6.81241 0.20679,-0.38986 0.41357,-0.77971 0.62036,-1.16956 0.27678,-0.15824 0.65542,-0.20817 0.83035,-0.47473 0.81975,-1.24916 0.28658,-3.41275 1.53053,-4.55104 0.25799,0.0184 0.59946,0.24595 0.77397,0.0551 0.5102,-0.55809 -0.0742,-1.53235 0.10974,-2.2658 0.22398,-0.89335 1.52449,-1.50842 1.82968,-2.3546 2.03996,-2.46485 4.60453,-4.08997 6.36173,-6.84831 2.63177,-3.41694 -0.59756,0.43503 2.38866,-2.16839 1.94256,-1.69354 3.35801,-3.96112 5.6083,-5.34458 2.15965,-1.17391 3.73337,-2.80655 5.77645,-4.1362 2.05717,-1.33882 4.41347,-2.13602 5.87592,-4.28022 1.64644,-1.7052 3.59361,-4.43732 5.58738,-5.69219 12.59529,-7.92741 25.39219,-15.53014 38.12836,-23.22916 0.80882,-0.48893 3.31632,-1.81339 2.50277,-1.33239 -11.18909,6.61539 -22.42109,13.15792 -33.63164,19.73688 3.11968,-2.1845 5.91237,-4.29253 8.48727,-7.14822 0.78819,-0.87414 1.4037,-1.90156 2.241,-2.72879 0.79252,-0.78297 1.74708,-1.38286 2.62061,-2.07429 4.65797,-4.78593 8.70736,-10.2148 14.1222,-14.25323 18.76051,-10.95068 34.99257,-22.57844 55.04098,-29.45489 13.91595,-7.1148 6.71873,-3.49363 -31.07856,18.23067 -0.88716,0.5099 1.68595,-1.1635 2.56949,-1.67965 12.957,-7.56929 25.95456,-15.069 38.94858,-22.57457 0.92365,-0.53352 3.72417,-2.08142 2.80376,-1.54234 -11.13505,6.52164 -22.29905,12.99373 -33.44857,19.49059 4.71115,-2.89241 8.58841,-6.71654 13.38155,-9.43351 2.71805,-3.53131 6.30067,-6.06621 8.10738,-10.46228 2.36028,-4.32403 4.64895,-10.73131 4.37297,-15.67702 -0.25795,-4.71114 -0.59492,-9.45826 -2.18759,-13.94367 -1.04307,-3.18025 -1.61904,-6.69312 -4.72648,-8.38891 -2.25143,-2.0414 -3.80577,-4.52002 -5.75445,-6.79965 -2.39927,-1.52333 -5.27407,-2.31088 -7.67571,-3.87448 -4.13198,-1.80155 -8.23258,-3.7555 -12.59785,-4.93 -3.89598,-1.07716 -7.52543,-2.58347 -11.05316,-4.55398 -4.38729,-1.59464 -8.91023,-2.86998 -12.96257,-5.25311 -4.71737,-2.043 -9.56198,-3.7867 -14.16677,-6.08455 -5.33823,-2.91429 -9.53074,-7.00133 -12.97108,-12.02247 0,0 36.72101,-21.28333 36.72101,-21.28333 z"
       inkscape:connector-curvature="0" />
  </g>
</svg>
