<?xml version="1.0" encoding="UTF-8" standalone="no"?>
<!-- Created with Inkscape (http://www.inkscape.org/) -->

<svg
   xmlns:dc="http://purl.org/dc/elements/1.1/"
   xmlns:cc="http://creativecommons.org/ns#"
   xmlns:rdf="http://www.w3.org/1999/02/22-rdf-syntax-ns#"
   xmlns:svg="http://www.w3.org/2000/svg"
   xmlns="http://www.w3.org/2000/svg"
   xmlns:xlink="http://www.w3.org/1999/xlink"
   xmlns:sodipodi="http://sodipodi.sourceforge.net/DTD/sodipodi-0.dtd"
   xmlns:inkscape="http://www.inkscape.org/namespaces/inkscape"
   width="210mm"
   height="297mm"
   id="svg4419"
   version="1.1"
   inkscape:version="0.91 r"
   sodipodi:docname="triangle.svg">
  <sodipodi:namedview
     inkscape:document-units="mm"
     id="base"
     pagecolor="#ffffff"
     bordercolor="#666666"
     borderopacity="1.0"
     inkscape:pageopacity="0.0"
     inkscape:pageshadow="2"
     inkscape:zoom="0.57679761"
     inkscape:cx="372.04724"
     inkscape:cy="526.1811"
     inkscape:current-layer="layer2"
     showgrid="false"
     inkscape:window-width="1303"
     inkscape:window-height="744"
     inkscape:window-x="63"
     inkscape:window-y="24"
     inkscape:window-maximized="1" />
  <defs
     id="defs3" />
  <metadata
     id="metadata4">
    <rdf:RDF>
      <cc:Work
         rdf:about="">
        <dc:format>image/svg+xml</dc:format>
        <dc:type
           rdf:resource="http://purl.org/dc/dcmitype/StillImage" />
        <dc:title />
      </cc:Work>
    </rdf:RDF>
  </metadata>
  <g
     sodipodi:insensitive="true"
     id="layer1"
     inkscape:groupmode="layer"
     inkscape:label="Layer 1">
    <path
       transform="matrix(-1.0706802,-4.1089904,-2.52703,1.6339289,1113.9616,653.44767)"
       inkscape:transform-center-y="-466.00313"
       inkscape:transform-center-x="304.02197"
       d="M 152,301.36218 67.129514,408.74932 16.56476,281.55576 -33.999992,154.36219 101.43524,174.16861 236.87048,193.97504 z"
       inkscape:randomized="0"
       inkscape:rounded="-1.0460383e-14"
       inkscape:flatsided="false"
       sodipodi:arg2="1.7160097"
       sodipodi:arg1="0.66881216"
       sodipodi:r2="158.05061"
       sodipodi:r1="79.025307"
       sodipodi:cy="252.36218"
       sodipodi:cx="90"
       sodipodi:sides="3"
       id="path4425"
       style="fill:#ffffff;fill-rule:evenodd;stroke:#000000;stroke-width:1px;stroke-linecap:butt;stroke-linejoin:miter;stroke-opacity:1"
       sodipodi:type="star" />
  </g>
  <g
     inkscape:label="lines"
     id="layer2"
     inkscape:groupmode="layer">
    <path
       sodipodi:nodetypes="cc"
       inkscape:connector-curvature="0"
       inkscape:connector-type="polyline"
       id="path3032"
       d="m 76.342701,852.70488 609.314599,5.3146"
       style="fill:none;stroke:#000000;stroke-width:1.68540215px;stroke-linecap:butt;stroke-linejoin:miter;stroke-opacity:1" />
    <path
       sodipodi:nodetypes="cc"
       inkscape:connector-curvature="0"
       inkscape:connector-type="polyline"
       id="path3034"
       d="m 152,630.36218 454,4"
       style="fill:none;stroke:#000000;stroke-width:1px;stroke-linecap:butt;stroke-linejoin:miter;stroke-opacity:1" />
    <path
       sodipodi:nodetypes="cc"
       inkscape:connector-curvature="0"
       inkscape:connector-type="polyline"
       id="path3036"
       d="m 224,436.36218 306,2"
       style="fill:none;stroke:#000000;stroke-width:1px;stroke-linecap:butt;stroke-linejoin:miter;stroke-opacity:1" />
    <path
       inkscape:connector-curvature="0"
       inkscape:connector-type="polyline"
       id="path3038"
       d="m 272,252.36218 -2,-2"
       style="fill:none;stroke:#000000;stroke-width:1px;stroke-linecap:butt;stroke-linejoin:miter;stroke-opacity:1" />
    <path
       sodipodi:nodetypes="cc"
       inkscape:connector-curvature="0"
       inkscape:connector-type="polyline"
       id="path3040"
       d="m 280,266.36218 188,-2"
       style="fill:none;stroke:#000000;stroke-width:1px;stroke-linecap:butt;stroke-linejoin:miter;stroke-opacity:1" />
    <path
       style="fill:#000000"
       d="m 143.9955,1038.439 c -2.11779,-2.1178 -1.86306,-12.7098 0.43835,-18.2276 2.52109,-6.0445 8.29712,-11.9352 14.40244,-14.6883 4.73121,-2.1335 5.11451,-2.1184 13.14277,0.5171 9.12878,2.9967 14.63275,2.6966 21.4025,-1.167 2.93611,-1.6757 4.96566,-2.0154 7.57303,-1.2676 13.38,3.8373 21.54091,14.2143 21.54091,27.3902 0,9.2938 -1.29926,9.8613 -16.66262,7.2779 -15.58048,-2.6199 -32.4139,-2.6977 -45.41492,-0.2099 -11.8466,2.2669 -14.47082,2.3268 -16.42246,0.3752 z m 30.56899,-35.3233 c -20.24583,-7.21856 -19.08089,-34.60396 1.73735,-40.84126 8.83077,-2.6457 19.65373,2.522 24.43026,11.665 2.29164,4.3866 2.25711,13.919 -0.0668,18.4128 -2.53235,4.897 -8.61044,9.74436 -14.14621,11.28176 -5.75728,1.5989 -6.05242,1.5861 -11.9547,-0.5183 z"
       id="path4468"
       inkscape:connector-curvature="0"
       inkscape:tile-cx="180.78769"
       inkscape:tile-cy="932.5798"
       inkscape:tile-w="79.948196"
       inkscape:tile-h="78.25494"
       inkscape:tile-x0="140.81359"
       inkscape:tile-y0="893.45233" />
    <use
       x="0"
       y="0"
       inkscape:tiled-clone-of="#path4468"
       xlink:href="#path4468"
       id="use4502"
       transform="translate(112.69118,-85.467421)"
       width="100%"
       height="100%" />
    <use
       x="0"
       y="0"
       inkscape:tiled-clone-of="#path4468"
       xlink:href="#path4468"
       transform="translate(79.750682,-0.27763905)"
       id="use4504"
       width="100%"
       height="100%" />
    <use
       x="0"
       y="0"
       inkscape:tiled-clone-of="#path4468"
       xlink:href="#path4468"
       transform="matrix(1.01,0,0,1,190.81415,-85.467421)"
       id="use4506"
       width="100%"
       height="100%" />
    <use
       x="0"
       y="0"
       inkscape:tiled-clone-of="#path4468"
       xlink:href="#path4468"
       transform="matrix(1.01,0,0,1,157.87365,-0.27763905)"
       id="use4508"
       width="100%"
       height="100%" />
    <use
       x="0"
       y="0"
       inkscape:tiled-clone-of="#path4468"
       xlink:href="#path4468"
       transform="matrix(1.02,0,0,1,268.93715,-85.467421)"
       id="use4510"
       width="100%"
       height="100%" />
    <use
       x="0"
       y="0"
       inkscape:tiled-clone-of="#path4468"
       xlink:href="#path4468"
       transform="matrix(1.02,0,0,1,235.99665,-0.27763905)"
       id="use4512"
       width="100%"
       height="100%" />
    <use
       x="0"
       y="0"
       inkscape:tiled-clone-of="#path4468"
       xlink:href="#path4468"
       transform="matrix(1.03,0,0,1,347.06013,-85.467421)"
       id="use4514"
       width="100%"
       height="100%" />
    <use
       x="0"
       y="0"
       inkscape:tiled-clone-of="#path4468"
       xlink:href="#path4468"
       transform="matrix(1.03,0,0,1,314.11963,-0.27763905)"
       id="use4516"
       width="100%"
       height="100%" />
    <use
       x="0"
       y="0"
       inkscape:tiled-clone-of="#path4468"
       xlink:href="#path4468"
       transform="matrix(1.04,0,0,1,425.18311,-85.467421)"
       id="use4518"
       width="100%"
       height="100%" />
    <use
       x="0"
       y="0"
       inkscape:tiled-clone-of="#path4468"
       xlink:href="#path4468"
       transform="matrix(1.04,0,0,1,392.24261,-0.27763905)"
       id="use4520"
       width="100%"
       height="100%" />
    <use
       height="100%"
       width="100%"
       transform="translate(32.691179,-85.467421)"
       id="use4531"
       xlink:href="#path4468"
       inkscape:tiled-clone-of="#path4468"
       y="0"
       x="0" />
    <use
       x="0"
       y="0"
       inkscape:tiled-clone-of="#path4468"
       xlink:href="#path4468"
       id="use4533"
       transform="translate(-47.308821,-85.467421)"
       width="100%"
       height="100%" />
    <use
       height="100%"
       width="100%"
       transform="translate(-80.249318,1.467421)"
       id="use4535"
       xlink:href="#path4468"
       inkscape:tiled-clone-of="#path4468"
       y="0"
       x="0" />
    <use
       height="100%"
       width="100%"
       transform="translate(5.8979663,-196.40226)"
       id="use4537"
       xlink:href="#path4468"
       inkscape:tiled-clone-of="#path4468"
       y="0"
       x="0"
       inkscape:tile-cx="151.21258"
       inkscape:tile-cy="809.2427"
       inkscape:tile-w="79.948196"
       inkscape:tile-h="78.25494"
       inkscape:tile-x0="111.23849"
       inkscape:tile-y0="770.11523" />
    <use
       x="0"
       y="0"
       inkscape:tiled-clone-of="#use4537"
       xlink:href="#use4537"
       id="use4539"
       transform="translate(28.674212,-83.484388)"
       width="100%"
       height="100%" />
    <use
       x="0"
       y="0"
       inkscape:tiled-clone-of="#use4537"
       xlink:href="#use4537"
       transform="translate(78.951813,-0.0283173)"
       id="use4541"
       width="100%"
       height="100%" />
    <use
       x="0"
       y="0"
       inkscape:tiled-clone-of="#use4537"
       xlink:href="#use4537"
       transform="matrix(1.01,0,0,1,106.73822,-83.484388)"
       id="use4543"
       width="100%"
       height="100%" />
    <use
       x="0"
       y="0"
       inkscape:tiled-clone-of="#use4537"
       xlink:href="#use4537"
       transform="matrix(1.01,0,0,1,157.01582,-0.0283173)"
       id="use4545"
       width="100%"
       height="100%" />
    <use
       x="0"
       y="0"
       inkscape:tiled-clone-of="#use4537"
       xlink:href="#use4537"
       transform="matrix(1.02,0,0,1,184.80222,-83.484388)"
       id="use4547"
       width="100%"
       height="100%" />
    <use
       x="0"
       y="0"
       inkscape:tiled-clone-of="#use4537"
       xlink:href="#use4537"
       transform="matrix(1.02,0,0,1,235.07982,-0.0283173)"
       id="use4549"
       width="100%"
       height="100%" />
    <use
       x="0"
       y="0"
       inkscape:tiled-clone-of="#use4537"
       xlink:href="#use4537"
       transform="matrix(1.03,0,0,1,262.86622,-83.484388)"
       id="use4551"
       width="100%"
       height="100%" />
    <use
       x="0"
       y="0"
       inkscape:tiled-clone-of="#use4537"
       xlink:href="#use4537"
       transform="matrix(1.03,0,0,1,313.14382,-0.0283173)"
       id="use4553"
       width="100%"
       height="100%" />
    <use
       x="0"
       y="0"
       inkscape:tiled-clone-of="#use4537"
       xlink:href="#use4537"
       transform="matrix(1.04,0,0,1,340.93022,-83.484388)"
       id="use4555"
       width="100%"
       height="100%" />
    <use
       x="0"
       y="0"
       inkscape:tiled-clone-of="#use4537"
       xlink:href="#use4537"
       transform="matrix(1.04,0,0,1,391.20782,-0.0283173)"
       id="use4557"
       width="100%"
       height="100%" />
    <use
       height="100%"
       width="100%"
       id="use4561"
       transform="matrix(1.04,0,0,1,472.24261,-0.27763905)"
       xlink:href="#path4468"
       inkscape:tiled-clone-of="#path4468"
       y="0"
       x="0" />
    <path
       inkscape:tile-y0="893.45233"
       inkscape:tile-x0="140.81359"
       inkscape:connector-curvature="0"
       id="use4567"
       d="m 243.37786,528.41638 c -2.11779,-2.1178 -1.86306,-12.7098 0.43835,-18.2276 2.52109,-6.0445 8.29712,-11.9352 14.40244,-14.6883 4.73121,-2.1335 5.11451,-2.1184 13.14277,0.5171 9.12878,2.9967 14.63275,2.6966 21.4025,-1.167 2.93611,-1.6757 4.96566,-2.0154 7.57303,-1.2676 13.38,3.8373 21.54091,14.2143 21.54091,27.3902 0,9.2938 -1.29926,9.8613 -16.66262,7.2779 -15.58048,-2.6199 -32.4139,-2.6977 -45.41492,-0.2099 -11.8466,2.2669 -14.47082,2.3268 -16.42246,0.3752 z m 30.56899,-35.3233 c -20.24583,-7.21856 -19.08089,-34.60396 1.73735,-40.84126 8.83077,-2.6457 19.65373,2.522 24.43026,11.665 2.29164,4.3866 2.25711,13.919 -0.0668,18.4128 -2.53235,4.897 -8.61044,9.74436 -14.14621,11.28176 -5.75728,1.5989 -6.05242,1.5861 -11.9547,-0.5183 z"
       style="fill:#000000" />
    <path
       inkscape:tile-y0="893.45233"
       inkscape:tile-x0="140.81359"
       inkscape:connector-curvature="0"
       id="use4569"
       d="m 210.43736,615.33983 c -2.11779,-2.1178 -1.86306,-12.7098 0.43835,-18.2276 2.52109,-6.0445 8.29712,-11.9352 14.40244,-14.6883 4.73121,-2.1335 5.11451,-2.1184 13.14277,0.5171 9.12878,2.9967 14.63275,2.6966 21.4025,-1.167 2.93611,-1.6757 4.96566,-2.0154 7.57303,-1.2676 13.38,3.8373 21.54091,14.2143 21.54091,27.3902 0,9.2938 -1.29926,9.8613 -16.66262,7.2779 -15.58048,-2.6199 -32.4139,-2.6977 -45.41492,-0.2099 -11.8466,2.2669 -14.47082,2.3268 -16.42246,0.3752 z m 30.56899,-35.3233 c -20.24583,-7.21856 -19.08089,-34.60396 1.73735,-40.84126 8.83077,-2.6457 19.65373,2.522 24.43026,11.665 2.29164,4.3866 2.25711,13.919 -0.0668,18.4128 -2.53235,4.897 -8.61044,9.74436 -14.14621,11.28176 -5.75728,1.5989 -6.05242,1.5861 -11.9547,-0.5183 z"
       style="fill:#000000" />
    <path
       inkscape:tile-y0="893.45233"
       inkscape:tile-x0="140.81359"
       inkscape:connector-curvature="0"
       id="use4571"
       d="m 322.9408,528.41638 c -2.13897,-2.1178 -1.8817,-12.7098 0.44273,-18.2276 2.5463,-6.0445 8.38009,-11.9352 14.54646,-14.6883 4.77853,-2.1335 5.16566,-2.1184 13.2742,0.5171 9.22007,2.9967 14.77908,2.6966 21.61653,-1.167 2.96547,-1.6757 5.01531,-2.0154 7.64876,-1.2676 13.5138,3.8373 21.75632,14.2143 21.75632,27.3902 0,9.2938 -1.31226,9.8613 -16.82925,7.2779 -15.73629,-2.6199 -32.73804,-2.6977 -45.86907,-0.2099 -11.96507,2.2669 -14.61553,2.3268 -16.58668,0.3752 z m 30.87467,-35.3233 c -20.44828,-7.21856 -19.27169,-34.60396 1.75473,-40.84126 8.91908,-2.6457 19.85027,2.522 24.67456,11.665 2.31456,4.3866 2.27968,13.919 -0.0675,18.4128 -2.55767,4.897 -8.69654,9.74436 -14.28767,11.28176 -5.81485,1.5989 -6.11294,1.5861 -12.07425,-0.5183 z"
       style="fill:#000000" />
    <path
       inkscape:tile-y0="893.45233"
       inkscape:tile-x0="140.81359"
       inkscape:connector-curvature="0"
       id="use4573"
       d="m 290.0003,615.33983 c -2.13897,-2.1178 -1.8817,-12.7098 0.44273,-18.2276 2.5463,-6.0445 8.38009,-11.9352 14.54646,-14.6883 4.77853,-2.1335 5.16566,-2.1184 13.2742,0.5171 9.22007,2.9967 14.77908,2.6966 21.61653,-1.167 2.96547,-1.6757 5.01531,-2.0154 7.64876,-1.2676 13.5138,3.8373 21.75632,14.2143 21.75632,27.3902 0,9.2938 -1.31226,9.8613 -16.82925,7.2779 -15.73629,-2.6199 -32.73804,-2.6977 -45.86907,-0.2099 -11.96507,2.2669 -14.61553,2.3268 -16.58668,0.3752 z m 30.87467,-35.3233 c -20.44828,-7.21856 -19.27169,-34.60396 1.75473,-40.84126 8.91908,-2.6457 19.85027,2.522 24.67456,11.665 2.31456,4.3866 2.27968,13.919 -0.0675,18.4128 -2.55767,4.897 -8.69654,9.74436 -14.28767,11.28176 -5.81485,1.5989 -6.11294,1.5861 -12.07425,-0.5183 z"
       style="fill:#000000" />
    <path
       inkscape:tile-y0="893.45233"
       inkscape:tile-x0="140.81359"
       inkscape:connector-curvature="0"
       id="use4577"
       d="m 369.56323,615.33983 c -2.16014,-2.1178 -1.90032,-12.7098 0.44712,-18.2276 2.57151,-6.0445 8.46306,-11.9352 14.69049,-14.6883 4.82583,-2.1335 5.2168,-2.1184 13.40562,0.5171 9.31136,2.9967 14.92541,2.6966 21.83055,-1.167 2.99484,-1.6757 5.06498,-2.0154 7.72449,-1.2676 13.6476,3.8373 21.97173,14.2143 21.97173,27.3902 0,9.2938 -1.32524,9.8613 -16.99587,7.2779 -15.89209,-2.6199 -33.06218,-2.6977 -46.32322,-0.2099 -12.08353,2.2669 -14.76024,2.3268 -16.75091,0.3752 z m 31.18037,-35.3233 c -20.65074,-7.21856 -19.46251,-34.60396 1.7721,-40.84126 9.00738,-2.6457 20.0468,2.522 24.91886,11.665 2.33748,4.3866 2.30226,13.919 -0.0681,18.4128 -2.583,4.897 -8.78265,9.74436 -14.42914,11.28176 -5.87242,1.5989 -6.17346,1.5861 -12.19379,-0.5183 z"
       style="fill:#000000" />
    <path
       style="fill:#000000"
       d="m 402.9408,528.41638 c -2.13897,-2.1178 -1.8817,-12.7098 0.44273,-18.2276 2.5463,-6.0445 8.38009,-11.9352 14.54646,-14.6883 4.77853,-2.1335 5.16566,-2.1184 13.2742,0.5171 9.22007,2.9967 14.77908,2.6966 21.61653,-1.167 2.96547,-1.6757 5.01531,-2.0154 7.64876,-1.2676 13.5138,3.8373 21.75632,14.2143 21.75632,27.3902 0,9.2938 -1.31226,9.8613 -16.82925,7.2779 -15.73629,-2.6199 -32.73804,-2.6977 -45.86907,-0.2099 -11.96507,2.2669 -14.61553,2.3268 -16.58668,0.3752 z m 30.87467,-35.3233 c -20.44828,-7.21856 -19.27169,-34.60396 1.75473,-40.84126 8.91908,-2.6457 19.85027,2.522 24.67456,11.665 2.31456,4.3866 2.27968,13.919 -0.0675,18.4128 -2.55767,4.897 -8.69654,9.74436 -14.28767,11.28176 -5.81485,1.5989 -6.11294,1.5861 -12.07425,-0.5183 z"
       id="path4603"
       inkscape:connector-curvature="0"
       inkscape:tile-x0="140.81359"
       inkscape:tile-y0="893.45233" />
    <path
       style="fill:#000000"
       d="m 451.56323,615.33983 c -2.16014,-2.1178 -1.90032,-12.7098 0.44712,-18.2276 2.57151,-6.0445 8.46306,-11.9352 14.69049,-14.6883 4.82583,-2.1335 5.2168,-2.1184 13.40562,0.5171 9.31136,2.9967 14.92541,2.6966 21.83055,-1.167 2.99484,-1.6757 5.06498,-2.0154 7.72449,-1.2676 13.6476,3.8373 21.97173,14.2143 21.97173,27.3902 0,9.2938 -1.32524,9.8613 -16.99587,7.2779 -15.89209,-2.6199 -33.06218,-2.6977 -46.32322,-0.2099 -12.08353,2.2669 -14.76024,2.3268 -16.75091,0.3752 z m 31.18037,-35.3233 c -20.65074,-7.21856 -19.46251,-34.60396 1.7721,-40.84126 9.00738,-2.6457 20.0468,2.522 24.91886,11.665 2.33748,4.3866 2.30226,13.919 -0.0681,18.4128 -2.583,4.897 -8.78265,9.74436 -14.42914,11.28176 -5.87242,1.5989 -6.17346,1.5861 -12.19379,-0.5183 z"
       id="path4605"
       inkscape:connector-curvature="0"
       inkscape:tile-x0="140.81359"
       inkscape:tile-y0="893.45233" />
    <path
       style="fill:#000000"
       d="m 243.37786,528.41638 c -2.11779,-2.1178 -1.86306,-12.7098 0.43835,-18.2276 2.52109,-6.0445 8.29712,-11.9352 14.40244,-14.6883 4.73121,-2.1335 5.11451,-2.1184 13.14277,0.5171 9.12878,2.9967 14.63275,2.6966 21.4025,-1.167 2.93611,-1.6757 4.96566,-2.0154 7.57303,-1.2676 13.38,3.8373 21.54091,14.2143 21.54091,27.3902 0,9.2938 -1.29926,9.8613 -16.66262,7.2779 -15.58048,-2.6199 -32.4139,-2.6977 -45.41492,-0.2099 -11.8466,2.2669 -14.47082,2.3268 -16.42246,0.3752 z m 30.56899,-35.3233 c -20.24583,-7.21856 -19.08089,-34.60396 1.73735,-40.84126 8.83077,-2.6457 19.65373,2.522 24.43026,11.665 2.29164,4.3866 2.25711,13.919 -0.0668,18.4128 -2.53235,4.897 -8.61044,9.74436 -14.14621,11.28176 -5.75728,1.5989 -6.05242,1.5861 -11.9547,-0.5183 z"
       id="path4607"
       inkscape:connector-curvature="0"
       inkscape:tile-x0="140.81359"
       inkscape:tile-y0="893.45233" />
    <path
       style="fill:#000000"
       d="m 328.9408,224.41638 c -2.13897,-2.1178 -1.8817,-12.7098 0.44273,-18.2276 2.5463,-6.0445 8.38009,-11.9352 14.54646,-14.6883 4.77853,-2.1335 5.16566,-2.1184 13.2742,0.5171 9.22007,2.9967 14.77908,2.6966 21.61653,-1.167 2.96547,-1.6757 5.01531,-2.0154 7.64876,-1.2676 13.5138,3.8373 21.75632,14.2143 21.75632,27.3902 0,9.2938 -1.31226,9.8613 -16.82925,7.2779 -15.73629,-2.6199 -32.73804,-2.6977 -45.86907,-0.2099 -11.96507,2.2669 -14.61553,2.3268 -16.58668,0.3752 z m 30.87467,-35.3233 c -20.44828,-7.21856 -19.27169,-34.60396 1.75473,-40.84126 8.91908,-2.6457 19.85027,2.522 24.67456,11.665 2.31456,4.3866 2.27968,13.919 -0.0675,18.4128 -2.55767,4.897 -8.69654,9.74436 -14.28767,11.28176 -5.81485,1.5989 -6.11294,1.5861 -12.07425,-0.5183 z"
       id="path4609"
       inkscape:connector-curvature="0"
       inkscape:tile-x0="140.81359"
       inkscape:tile-y0="893.45233" />
    <path
       inkscape:tile-y0="893.45233"
       inkscape:tile-x0="140.81359"
       inkscape:connector-curvature="0"
       id="path4611"
       d="m 298.9408,352.41638 c -2.13897,-2.1178 -1.8817,-12.7098 0.44273,-18.2276 2.5463,-6.0445 8.38009,-11.9352 14.54646,-14.6883 4.77853,-2.1335 5.16566,-2.1184 13.2742,0.5171 9.22007,2.9967 14.77908,2.6966 21.61653,-1.167 2.96547,-1.6757 5.01531,-2.0154 7.64876,-1.2676 13.5138,3.8373 21.75632,14.2143 21.75632,27.3902 0,9.2938 -1.31226,9.8613 -16.82925,7.2779 -15.73629,-2.6199 -32.73804,-2.6977 -45.86907,-0.2099 -11.96507,2.2669 -14.61553,2.3268 -16.58668,0.3752 z m 30.87467,-35.3233 c -20.44828,-7.21856 -19.27169,-34.60396 1.75473,-40.84126 8.91908,-2.6457 19.85027,2.522 24.67456,11.665 2.31456,4.3866 2.27968,13.919 -0.0675,18.4128 -2.55767,4.897 -8.69654,9.74436 -14.28767,11.28176 -5.81485,1.5989 -6.11294,1.5861 -12.07425,-0.5183 z"
       style="fill:#000000" />
    <path
       style="fill:#000000"
       d="m 380.9408,352.41638 c -2.13897,-2.1178 -1.8817,-12.7098 0.44273,-18.2276 2.5463,-6.0445 8.38009,-11.9352 14.54646,-14.6883 4.77853,-2.1335 5.16566,-2.1184 13.2742,0.5171 9.22007,2.9967 14.77908,2.6966 21.61653,-1.167 2.96547,-1.6757 5.01531,-2.0154 7.64876,-1.2676 13.5138,3.8373 21.75632,14.2143 21.75632,27.3902 0,9.2938 -1.31226,9.8613 -16.82925,7.2779 -15.73629,-2.6199 -32.73804,-2.6977 -45.86907,-0.2099 -11.96507,2.2669 -14.61553,2.3268 -16.58668,0.3752 z m 30.87467,-35.3233 c -20.44828,-7.21856 -19.27169,-34.60396 1.75473,-40.84126 8.91908,-2.6457 19.85027,2.522 24.67456,11.665 2.31456,4.3866 2.27968,13.919 -0.0675,18.4128 -2.55767,4.897 -8.69654,9.74436 -14.28767,11.28176 -5.81485,1.5989 -6.11294,1.5861 -12.07425,-0.5183 z"
       id="path4613"
       inkscape:connector-curvature="0"
       inkscape:tile-x0="140.81359"
       inkscape:tile-y0="893.45233" />
    <path
       inkscape:tile-y0="893.45233"
       inkscape:tile-x0="140.81359"
       inkscape:connector-curvature="0"
       id="path4615"
       d="m 380.9408,428.41638 c -2.13897,-2.1178 -1.8817,-12.7098 0.44273,-18.2276 2.5463,-6.0445 8.38009,-11.9352 14.54646,-14.6883 4.77853,-2.1335 5.16566,-2.1184 13.2742,0.5171 9.22007,2.9967 14.77908,2.6966 21.61653,-1.167 2.96547,-1.6757 5.01531,-2.0154 7.64876,-1.2676 13.5138,3.8373 21.75632,14.2143 21.75632,27.3902 0,9.2938 -1.31226,9.8613 -16.82925,7.2779 -15.73629,-2.6199 -32.73804,-2.6977 -45.86907,-0.2099 -11.96507,2.2669 -14.61553,2.3268 -16.58668,0.3752 z m 30.87467,-35.3233 c -20.44828,-7.21856 -19.27169,-34.60396 1.75473,-40.84126 8.91908,-2.6457 19.85027,2.522 24.67456,11.665 2.31456,4.3866 2.27968,13.919 -0.0675,18.4128 -2.55767,4.897 -8.69654,9.74436 -14.28767,11.28176 -5.81485,1.5989 -6.11294,1.5861 -12.07425,-0.5183 z"
       style="fill:#000000" />
    <path
       style="fill:#000000"
       d="m 294.9408,428.41638 c -2.13897,-2.1178 -1.8817,-12.7098 0.44273,-18.2276 2.5463,-6.0445 8.38009,-11.9352 14.54646,-14.6883 4.77853,-2.1335 5.16566,-2.1184 13.2742,0.5171 9.22007,2.9967 14.77908,2.6966 21.61653,-1.167 2.96547,-1.6757 5.01531,-2.0154 7.64876,-1.2676 13.5138,3.8373 21.75632,14.2143 21.75632,27.3902 0,9.2938 -1.31226,9.8613 -16.82925,7.2779 -15.73629,-2.6199 -32.73804,-2.6977 -45.86907,-0.2099 -11.96507,2.2669 -14.61553,2.3268 -16.58668,0.3752 z m 30.87467,-35.3233 c -20.44828,-7.21856 -19.27169,-34.60396 1.75473,-40.84126 8.91908,-2.6457 19.85027,2.522 24.67456,11.665 2.31456,4.3866 2.27968,13.919 -0.0675,18.4128 -2.55767,4.897 -8.69654,9.74436 -14.28767,11.28176 -5.81485,1.5989 -6.11294,1.5861 -12.07425,-0.5183 z"
       id="path4617"
       inkscape:connector-curvature="0"
       inkscape:tile-x0="140.81359"
       inkscape:tile-y0="893.45233" />
  </g>
</svg>
