<?xml version="1.0" encoding="UTF-8" standalone="no"?>
<!-- Created with Inkscape (http://www.inkscape.org/) -->

<svg
   xmlns:dc="http://purl.org/dc/elements/1.1/"
   xmlns:cc="http://creativecommons.org/ns#"
   xmlns:rdf="http://www.w3.org/1999/02/22-rdf-syntax-ns#"
   xmlns:svg="http://www.w3.org/2000/svg"
   xmlns="http://www.w3.org/2000/svg"
   xmlns:xlink="http://www.w3.org/1999/xlink"
   xmlns:sodipodi="http://sodipodi.sourceforge.net/DTD/sodipodi-0.dtd"
   xmlns:inkscape="http://www.inkscape.org/namespaces/inkscape"
   width="210mm"
   height="297mm"
   id="svg4419"
   version="1.1"
   inkscape:version="0.48.4 r9939"
   sodipodi:docname="triangle.svg">
  <sodipodi:namedview
     inkscape:document-units="mm"
     id="base"
     pagecolor="#ffffff"
     bordercolor="#666666"
     borderopacity="1.0"
     inkscape:pageopacity="0.0"
     inkscape:pageshadow="2"
     inkscape:zoom="0.40351077"
     inkscape:cx="433.95659"
     inkscape:cy="552.29633"
     inkscape:current-layer="layer2"
     showgrid="false"
     inkscape:window-width="1301"
     inkscape:window-height="744"
     inkscape:window-x="65"
     inkscape:window-y="24"
     inkscape:window-maximized="1"
     inkscape:snap-text-baseline="false"
     inkscape:snap-others="true"
     inkscape:snap-to-guides="true"
     showguides="true"
     inkscape:guide-bbox="true">
    <sodipodi:guide
       position="-899.98082,59.18636"
       orientation="1,0"
       id="guide4359" />
  </sodipodi:namedview>
  <defs
     id="defs3">
    <marker
       inkscape:stockid="Arrow2Lend"
       orient="auto"
       refY="0.0"
       refX="0.0"
       id="Arrow2Lend"
       style="overflow:visible;"
       inkscape:isstock="true">
      <path
         id="path4242"
         style="fill-rule:evenodd;stroke-width:0.625;stroke-linejoin:round;stroke:#2b0000;stroke-opacity:1;fill:#2b0000;fill-opacity:1"
         d="M 8.7185878,4.0337352 L -2.2072895,0.016013256 L 8.7185884,-4.0017078 C 6.9730900,-1.6296469 6.9831476,1.6157441 8.7185878,4.0337352 z "
         transform="scale(1.1) rotate(180) translate(1,0)" />
    </marker>
    <marker
       inkscape:stockid="Arrow1Lend"
       orient="auto"
       refY="0.0"
       refX="0.0"
       id="marker4639"
       style="overflow:visible;"
       inkscape:isstock="true">
      <path
         id="path4641"
         d="M 0.0,0.0 L 5.0,-5.0 L -12.5,0.0 L 5.0,5.0 L 0.0,0.0 z "
         style="fill-rule:evenodd;stroke:#000000;stroke-width:1pt;stroke-opacity:1;fill:#000000;fill-opacity:1"
         transform="scale(0.8) rotate(180) translate(12.5,0)" />
    </marker>
    <marker
       inkscape:stockid="Arrow1Lend"
       orient="auto"
       refY="0.0"
       refX="0.0"
       id="Arrow1Lend"
       style="overflow:visible;"
       inkscape:isstock="true">
      <path
         id="path4224"
         d="M 0.0,0.0 L 5.0,-5.0 L -12.5,0.0 L 5.0,5.0 L 0.0,0.0 z "
         style="fill-rule:evenodd;stroke:#eb27bf;stroke-width:1pt;stroke-opacity:1;fill:#550000;fill-opacity:1"
         transform="scale(0.8) rotate(180) translate(12.5,0)" />
    </marker>
    <marker
       inkscape:stockid="Arrow1Lstart"
       orient="auto"
       refY="0.0"
       refX="0.0"
       id="Arrow1Lstart"
       style="overflow:visible"
       inkscape:isstock="true">
      <path
         id="path4221"
         d="M 0.0,0.0 L 5.0,-5.0 L -12.5,0.0 L 5.0,5.0 L 0.0,0.0 z "
         style="fill-rule:evenodd;stroke:#eb27bf;stroke-width:1pt;stroke-opacity:1;fill:#550000;fill-opacity:1"
         transform="scale(0.8) translate(12.5,0)" />
    </marker>
  </defs>
  <metadata
     id="metadata4">
    <rdf:RDF>
      <cc:Work
         rdf:about="">
        <dc:format>image/svg+xml</dc:format>
        <dc:type
           rdf:resource="http://purl.org/dc/dcmitype/StillImage" />
        <dc:title />
      </cc:Work>
    </rdf:RDF>
  </metadata>
  <g
     sodipodi:insensitive="true"
     id="layer1"
     inkscape:groupmode="layer"
     inkscape:label="Layer 1">
    <path
       transform="matrix(-1.0706802,-4.1089904,-2.52703,1.6339289,1113.9616,653.44767)"
       inkscape:transform-center-y="-466.00313"
       inkscape:transform-center-x="304.02197"
       d="M 152,301.36218 67.129514,408.74932 16.56476,281.55576 -33.999992,154.36219 101.43524,174.16861 236.87048,193.97504 z"
       inkscape:randomized="0"
       inkscape:rounded="-1.0460383e-14"
       inkscape:flatsided="false"
       sodipodi:arg2="1.7160097"
       sodipodi:arg1="0.66881216"
       sodipodi:r2="158.05061"
       sodipodi:r1="79.025307"
       sodipodi:cy="252.36218"
       sodipodi:cx="90"
       sodipodi:sides="3"
       id="path4425"
       style="fill:#ffffff;fill-rule:evenodd;stroke:#000000;stroke-width:1px;stroke-linecap:butt;stroke-linejoin:miter;stroke-opacity:1"
       sodipodi:type="star" />
  </g>
  <g
     inkscape:label="lines"
     id="layer2"
     inkscape:groupmode="layer">
    <rect
       style="fill:#ffffff;fill-opacity:1;fill-rule:nonzero;stroke:#090000;stroke-width:8.62201023;stroke-miterlimit:4;stroke-opacity:1;stroke-dasharray:none"
       id="rect3071"
       width="1344.4148"
       height="1418.8492"
       x="-139.12085"
       y="-184.11961"
       ry="177.97411" />
    <text
       xml:space="preserve"
       style="font-style:normal;font-weight:normal;font-size:40px;line-height:125%;font-family:Sans;letter-spacing:0px;word-spacing:0px;fill:#4d4d4d;fill-opacity:1;stroke:none;stroke-width:1px;stroke-linecap:butt;stroke-linejoin:miter;stroke-opacity:1;"
       x="330"
       y="996.36218"
       id="text3383"
       sodipodi:linespacing="125%"><tspan
         sodipodi:role="line"
         x="330"
         y="996.36218"
         id="tspan3387" /><tspan
         sodipodi:role="line"
         x="330"
         y="1046.3622"
         id="tspan3395" /></text>
    <text
       xml:space="preserve"
       style="font-style:normal;font-weight:normal;font-size:40px;line-height:125%;font-family:Sans;letter-spacing:0px;word-spacing:0px;fill:#000000;fill-opacity:1;stroke:none;stroke-width:1px;stroke-linecap:butt;stroke-linejoin:miter;stroke-opacity:1"
       x="278.78851"
       y="192.30878"
       id="text4323"
       sodipodi:linespacing="125%"><tspan
         sodipodi:role="line"
         id="tspan4325"
         x="278.78851"
         y="192.30878" /></text>
    <flowRoot
       xml:space="preserve"
       id="flowRoot4403"
       style="fill:black;stroke:none;stroke-opacity:1;stroke-width:1px;stroke-linejoin:miter;stroke-linecap:butt;fill-opacity:1;font-family:Sans;font-style:normal;font-weight:normal;font-size:60px;line-height:125%;letter-spacing:0px;word-spacing:0px;"><flowRegion
         id="flowRegion4405"><rect
           id="rect4407"
           width="55.478733"
           height="43.342758"
           x="353.67691"
           y="390.08484"
           style="font-size:60px;" /></flowRegion><flowPara
         id="flowPara4409" /></flowRoot>    <text
       xml:space="preserve"
       style="font-style:normal;font-weight:normal;font-size:40px;line-height:125%;font-family:Sans;letter-spacing:0px;word-spacing:0px;fill:#000000;fill-opacity:1;stroke:none;stroke-width:1px;stroke-linecap:butt;stroke-linejoin:miter;stroke-opacity:1"
       x="-10.932883"
       y="168.62086"
       id="text5039"
       sodipodi:linespacing="125%"><tspan
         sodipodi:role="line"
         id="tspan5041"
         x="-10.932883"
         y="168.62086" /></text>
    <g
       id="g4009"
       transform="translate(161.13969,0)">
      <path
         transform="matrix(1.1227205,0.232229,-0.15810412,1.7895401,1408.9799,653.76032)"
         inkscape:transform-center-y="-173.91312"
         inkscape:transform-center-x="1.9655435"
         d="m -542.64981,290.93659 -664.16429,87.46465 256.33552,-618.91549 z"
         inkscape:randomized="0"
         inkscape:rounded="0"
         inkscape:flatsided="true"
         sodipodi:arg2="1.4398585"
         sodipodi:arg1="0.39266095"
         sodipodi:r2="193.3831"
         sodipodi:r1="386.7662"
         sodipodi:cy="142.94119"
         sodipodi:cx="-899.98083"
         sodipodi:sides="3"
         id="path3073"
         style="fill:#ddff55;fill-opacity:1;fill-rule:nonzero;stroke:#000000;stroke-width:3.75900984;stroke-miterlimit:4;stroke-opacity:1;stroke-dasharray:none"
         sodipodi:type="star" />
      <path
         style="fill:none;stroke:#000000;stroke-width:1.68540215px;stroke-linecap:butt;stroke-linejoin:miter;stroke-opacity:1"
         d="m 74.601926,843.0379 609.314594,5.3146"
         id="path3032"
         inkscape:connector-type="polyline"
         inkscape:connector-curvature="0"
         sodipodi:nodetypes="cc" />
      <path
         style="fill:none;stroke:#000000;stroke-width:1px;stroke-linecap:butt;stroke-linejoin:miter;stroke-opacity:1"
         d="m 152,630.36218 454,4"
         id="path3034"
         inkscape:connector-type="polyline"
         inkscape:connector-curvature="0"
         sodipodi:nodetypes="cc" />
      <path
         style="fill:none;stroke:#000000;stroke-width:1px;stroke-linecap:butt;stroke-linejoin:miter;stroke-opacity:1"
         d="m 224,436.36218 306,2"
         id="path3036"
         inkscape:connector-type="polyline"
         inkscape:connector-curvature="0"
         sodipodi:nodetypes="cc" />
      <path
         style="fill:none;stroke:#000000;stroke-width:1px;stroke-linecap:butt;stroke-linejoin:miter;stroke-opacity:1"
         d="m 272,252.36218 -2,-2"
         id="path3038"
         inkscape:connector-type="polyline"
         inkscape:connector-curvature="0" />
      <path
         style="fill:none;stroke:#000000;stroke-width:1px;stroke-linecap:butt;stroke-linejoin:miter;stroke-opacity:1"
         d="m 280,266.36218 188,-2"
         id="path3040"
         inkscape:connector-type="polyline"
         inkscape:connector-curvature="0"
         sodipodi:nodetypes="cc" />
      <path
         inkscape:tile-y0="893.45233"
         inkscape:tile-x0="140.81359"
         inkscape:tile-h="78.25494"
         inkscape:tile-w="79.948196"
         inkscape:tile-cy="932.5798"
         inkscape:tile-cx="180.78769"
         inkscape:connector-curvature="0"
         id="path4468"
         d="m 109.24047,1036.3392 c -2.11779,-2.1178 -1.86306,-12.7098 0.43835,-18.2276 2.52109,-6.0445 8.29712,-11.9352 14.40244,-14.6883 4.73121,-2.1335 5.11451,-2.1184 13.14277,0.5171 9.12878,2.9967 14.63275,2.6966 21.4025,-1.167 2.93611,-1.6757 4.96566,-2.0154 7.57303,-1.2676 13.38,3.8373 21.54091,14.2143 21.54091,27.3902 0,9.2938 -1.29926,9.8613 -16.66262,7.2779 -15.58048,-2.6199 -32.4139,-2.6977 -45.41492,-0.2099 -11.8466,2.2669 -14.47082,2.3268 -16.42246,0.3752 z m 30.56899,-35.3233 c -20.24583,-7.21851 -19.08089,-34.60391 1.73735,-40.84121 8.83077,-2.6457 19.65373,2.522 24.43026,11.665 2.29164,4.3866 2.25711,13.919 -0.0668,18.4128 -2.53235,4.897 -8.61044,9.74436 -14.14621,11.28171 -5.75728,1.5989 -6.05242,1.5861 -11.9547,-0.5183 z"
         style="fill:#000000" />
      <use
         height="1052.3622"
         width="744.09448"
         transform="translate(109.44621,-83.367635)"
         id="use4502"
         xlink:href="#path4468"
         inkscape:tiled-clone-of="#path4468"
         y="0"
         x="0" />
      <use
         height="1052.3622"
         width="744.09448"
         id="use4504"
         transform="translate(87.57283,3.9000001e-6)"
         xlink:href="#path4468"
         inkscape:tiled-clone-of="#path4468"
         y="0"
         x="0" />
      <use
         height="1052.3622"
         width="744.09448"
         id="use4506"
         transform="matrix(1.01,0,0,1,187.91673,-83.367635)"
         xlink:href="#path4468"
         inkscape:tiled-clone-of="#path4468"
         y="0"
         x="0" />
      <use
         height="1052.3622"
         width="744.09448"
         id="use4510"
         transform="matrix(1.02,0,0,1,266.38728,-83.367635)"
         xlink:href="#path4468"
         inkscape:tiled-clone-of="#path4468"
         y="0"
         x="0" />
      <use
         height="1052.3622"
         width="744.09448"
         id="use4514"
         transform="matrix(1.03,0,0,1,344.85781,-83.367635)"
         xlink:href="#path4468"
         inkscape:tiled-clone-of="#path4468"
         y="0"
         x="0" />
      <use
         height="1052.3622"
         width="744.09448"
         id="use4516"
         transform="matrix(1.03,0,0,1,371.78308,3.9000001e-6)"
         xlink:href="#path4468"
         inkscape:tiled-clone-of="#path4468"
         y="0"
         x="0" />
      <use
         height="1052.3622"
         width="744.09448"
         id="use4518"
         transform="matrix(1.04,0,0,1,423.32834,-83.367635)"
         xlink:href="#path4468"
         inkscape:tiled-clone-of="#path4468"
         y="0"
         x="0" />
      <use
         height="1052.3622"
         width="744.09448"
         id="use4520"
         transform="matrix(1.04,0,0,1,452.07575,3.9000001e-6)"
         xlink:href="#path4468"
         inkscape:tiled-clone-of="#path4468"
         y="0"
         x="0" />
      <use
         x="0"
         y="0"
         inkscape:tiled-clone-of="#path4468"
         xlink:href="#path4468"
         id="use4531"
         transform="translate(29.446209,-83.367635)"
         width="744.09448"
         height="1052.3622" />
      <use
         height="1052.3622"
         width="744.09448"
         transform="translate(-50.553791,-83.367635)"
         id="use4533"
         xlink:href="#path4468"
         inkscape:tiled-clone-of="#path4468"
         y="0"
         x="0" />
      <use
         x="0"
         y="0"
         inkscape:tiled-clone-of="#path4468"
         xlink:href="#path4468"
         id="use4535"
         transform="translate(-85.53791,8.9e-6)"
         width="744.09448"
         height="1052.3622" />
      <use
         inkscape:tile-y0="770.11523"
         inkscape:tile-x0="111.23849"
         inkscape:tile-h="78.25494"
         inkscape:tile-w="79.948196"
         inkscape:tile-cy="809.2427"
         inkscape:tile-cx="151.21258"
         x="0"
         y="0"
         inkscape:tiled-clone-of="#path4468"
         xlink:href="#path4468"
         id="use4537"
         transform="translate(-22.991298,-199.76891)"
         width="744.09448"
         height="1052.3622" />
      <use
         height="1052.3622"
         width="744.09448"
         transform="translate(53.831946,-99.883716)"
         id="use4539"
         xlink:href="#use4537"
         inkscape:tiled-clone-of="#use4537"
         y="0"
         x="0" />
      <use
         height="1052.3622"
         width="744.09448"
         id="use4541"
         transform="translate(80.77397,0)"
         xlink:href="#use4537"
         inkscape:tiled-clone-of="#use4537"
         y="0"
         x="0" />
      <use
         height="1052.3622"
         width="744.09448"
         id="use4543"
         transform="matrix(1.01,0,0,1,132.75387,-99.883716)"
         xlink:href="#use4537"
         inkscape:tiled-clone-of="#use4537"
         y="0"
         x="0" />
      <use
         height="1052.3622"
         width="744.09448"
         id="use4547"
         transform="matrix(1.02,0,0,1,215.0986,-99.883716)"
         xlink:href="#use4537"
         inkscape:tiled-clone-of="#use4537"
         y="0"
         x="0" />
      <use
         height="1052.3622"
         width="744.09448"
         id="use4549"
         transform="matrix(1.02,0,0,1,465.81238,-99.883716)"
         xlink:href="#use4537"
         inkscape:tiled-clone-of="#use4537"
         y="0"
         x="0" />
      <use
         height="1052.3622"
         width="744.09448"
         id="use4551"
         transform="matrix(1.03,0,0,1,299.2655,-99.883716)"
         xlink:href="#use4537"
         inkscape:tiled-clone-of="#use4537"
         y="0"
         x="0" />
      <use
         height="1052.3622"
         width="744.09448"
         id="use4553"
         transform="matrix(1.03,0,0,1,416.91892,0)"
         xlink:href="#use4537"
         inkscape:tiled-clone-of="#use4537"
         y="0"
         x="0" />
      <use
         height="1052.3622"
         width="744.09448"
         id="use4555"
         transform="matrix(1.04,0,0,1,381.61022,-99.883716)"
         xlink:href="#use4537"
         inkscape:tiled-clone-of="#use4537"
         y="0"
         x="0" />
      <use
         height="1052.3622"
         width="744.09448"
         id="use4557"
         transform="matrix(1.04,0,0,1,501.0858,0)"
         xlink:href="#use4537"
         inkscape:tiled-clone-of="#use4537"
         y="0"
         x="0" />
      <use
         x="0"
         y="0"
         inkscape:tiled-clone-of="#path4468"
         xlink:href="#path4468"
         transform="matrix(1.04,0,0,1,535.72005,3.9000001e-6)"
         id="use4561"
         width="744.09448"
         height="1052.3622" />
      <path
         style="fill:#000000"
         d="m 215.15639,529.69892 c -2.11779,-2.1178 -1.86306,-12.7098 0.43835,-18.2276 2.52109,-6.0445 8.29712,-11.9352 14.40244,-14.6883 4.73121,-2.1335 5.11451,-2.1184 13.14277,0.5171 9.12878,2.9967 14.63275,2.6966 21.4025,-1.167 2.93611,-1.6757 4.96566,-2.0154 7.57303,-1.2676 13.38,3.8373 21.54091,14.2143 21.54091,27.3902 0,9.2938 -1.29926,9.8613 -16.66262,7.2779 -15.58048,-2.6199 -32.4139,-2.6977 -45.41492,-0.2099 -11.8466,2.2669 -14.47082,2.3268 -16.42246,0.3752 z m 30.56899,-35.3233 c -20.24583,-7.21856 -19.08089,-34.60396 1.73735,-40.84126 8.83077,-2.6457 19.65373,2.522 24.43026,11.665 2.29164,4.3866 2.25711,13.919 -0.0668,18.4128 -2.53235,4.897 -8.61044,9.74436 -14.14621,11.28176 -5.75728,1.5989 -6.05242,1.5861 -11.9547,-0.5183 z"
         id="use4567"
         inkscape:connector-curvature="0"
         inkscape:tile-x0="140.81359"
         inkscape:tile-y0="893.45233" />
      <path
         style="fill:#000000"
         d="m 162.52797,622.62841 c -2.11779,-2.1178 -1.86306,-12.7098 0.43835,-18.2276 2.52109,-6.0445 8.29712,-11.9352 14.40244,-14.6883 4.73121,-2.1335 5.11451,-2.1184 13.14277,0.5171 9.12878,2.9967 14.63275,2.6966 21.4025,-1.167 2.93611,-1.6757 4.96566,-2.0154 7.57303,-1.2676 13.38,3.8373 21.54091,14.2143 21.54091,27.3902 0,9.2938 -1.29926,9.8613 -16.66262,7.2779 -15.58048,-2.6199 -32.4139,-2.6977 -45.41492,-0.2099 -11.8466,2.2669 -14.47082,2.3268 -16.42246,0.3752 z m 30.56899,-35.3233 c -20.24583,-7.21856 -19.08089,-34.60396 1.73735,-40.84126 8.83077,-2.6457 19.65373,2.522 24.43026,11.665 2.29164,4.3866 2.25711,13.919 -0.0668,18.4128 -2.53235,4.897 -8.61044,9.74436 -14.14621,11.28176 -5.75728,1.5989 -6.05242,1.5861 -11.9547,-0.5183 z"
         id="use4569"
         inkscape:connector-curvature="0"
         inkscape:tile-x0="140.81359"
         inkscape:tile-y0="893.45233" />
      <path
         style="fill:#000000"
         d="m 248.23276,622.62841 c -2.13897,-2.1178 -1.8817,-12.7098 0.44273,-18.2276 2.5463,-6.0445 8.38009,-11.9352 14.54646,-14.6883 4.77853,-2.1335 5.16566,-2.1184 13.2742,0.5171 9.22007,2.9967 14.77908,2.6966 21.61653,-1.167 2.96547,-1.6757 5.01531,-2.0154 7.64876,-1.2676 13.5138,3.8373 21.75632,14.2143 21.75632,27.3902 0,9.2938 -1.31226,9.8613 -16.82925,7.2779 -15.73629,-2.6199 -32.73804,-2.6977 -45.86907,-0.2099 -11.96507,2.2669 -14.61553,2.3268 -16.58668,0.3752 z m 30.87467,-35.3233 c -20.44828,-7.21856 -19.27169,-34.60396 1.75473,-40.84126 8.91908,-2.6457 19.85027,2.522 24.67456,11.665 2.31456,4.3866 2.27968,13.919 -0.0675,18.4128 -2.55767,4.897 -8.69654,9.74436 -14.28767,11.28176 -5.81485,1.5989 -6.11294,1.5861 -12.07425,-0.5183 z"
         id="use4571"
         inkscape:connector-curvature="0"
         inkscape:tile-x0="140.81359"
         inkscape:tile-y0="893.45233" />
      <path
         style="fill:#000000"
         d="m 468.57071,529.69892 c -2.13897,-2.1178 -1.8817,-12.7098 0.44273,-18.2276 2.5463,-6.0445 8.38009,-11.9352 14.54646,-14.6883 4.77853,-2.1335 5.16566,-2.1184 13.2742,0.5171 9.22007,2.9967 14.77908,2.6966 21.61653,-1.167 2.96547,-1.6757 5.01531,-2.0154 7.64876,-1.2676 13.5138,3.8373 21.75632,14.2143 21.75632,27.3902 0,9.2938 -1.31226,9.8613 -16.82925,7.2779 -15.73629,-2.6199 -32.73804,-2.6977 -45.86907,-0.2099 -11.96507,2.2669 -14.61553,2.3268 -16.58668,0.3752 z m 30.87467,-35.3233 c -20.44828,-7.21856 -19.27169,-34.60396 1.75473,-40.84126 8.91908,-2.6457 19.85027,2.522 24.67456,11.665 2.31456,4.3866 2.27968,13.919 -0.0675,18.4128 -2.55767,4.897 -8.69654,9.74436 -14.28767,11.28176 -5.81485,1.5989 -6.11294,1.5861 -12.07425,-0.5183 z"
         id="use4573"
         inkscape:connector-curvature="0"
         inkscape:tile-x0="140.81359"
         inkscape:tile-y0="893.45233" />
      <path
         style="fill:#000000"
         d="m 430.62696,622.62841 c -2.16014,-2.1178 -1.90032,-12.7098 0.44712,-18.2276 2.57151,-6.0445 8.46306,-11.9352 14.69049,-14.6883 4.82583,-2.1335 5.2168,-2.1184 13.40562,0.5171 9.31136,2.9967 14.92541,2.6966 21.83055,-1.167 2.99484,-1.6757 5.06498,-2.0154 7.72449,-1.2676 13.6476,3.8373 21.97173,14.2143 21.97173,27.3902 0,9.2938 -1.32524,9.8613 -16.99587,7.2779 -15.89209,-2.6199 -33.06218,-2.6977 -46.32322,-0.2099 -12.08353,2.2669 -14.76024,2.3268 -16.75091,0.3752 z m 31.18037,-35.3233 c -20.65074,-7.21856 -19.46251,-34.60396 1.7721,-40.84126 9.00738,-2.6457 20.0468,2.522 24.91886,11.665 2.33748,4.3866 2.30226,13.919 -0.0681,18.4128 -2.583,4.897 -8.78265,9.74436 -14.42914,11.28176 -5.87242,1.5989 -6.17346,1.5861 -12.19379,-0.5183 z"
         id="use4577"
         inkscape:connector-curvature="0"
         inkscape:tile-x0="140.81359"
         inkscape:tile-y0="893.45233" />
      <path
         inkscape:tile-y0="893.45233"
         inkscape:tile-x0="140.81359"
         inkscape:connector-curvature="0"
         id="path4603"
         d="m 382.89718,529.69892 c -2.13897,-2.1178 -1.8817,-12.7098 0.44273,-18.2276 2.5463,-6.0445 8.38009,-11.9352 14.54646,-14.6883 4.77853,-2.1335 5.16566,-2.1184 13.2742,0.5171 9.22007,2.9967 14.77908,2.6966 21.61653,-1.167 2.96547,-1.6757 5.01531,-2.0154 7.64876,-1.2676 13.5138,3.8373 21.75632,14.2143 21.75632,27.3902 0,9.2938 -1.31226,9.8613 -16.82925,7.2779 -15.73629,-2.6199 -32.73804,-2.6977 -45.86907,-0.2099 -11.96507,2.2669 -14.61553,2.3268 -16.58668,0.3752 z m 30.87467,-35.3233 c -20.44828,-7.21856 -19.27169,-34.60396 1.75473,-40.84126 8.91908,-2.6457 19.85027,2.522 24.67456,11.665 2.31456,4.3866 2.27968,13.919 -0.0675,18.4128 -2.55767,4.897 -8.69654,9.74436 -14.28767,11.28176 -5.81485,1.5989 -6.11294,1.5861 -12.07425,-0.5183 z"
         style="fill:#000000" />
      <path
         inkscape:tile-y0="893.45233"
         inkscape:tile-x0="140.81359"
         inkscape:connector-curvature="0"
         id="path4605"
         d="m 515.33838,622.62841 c -2.16014,-2.1178 -1.90032,-12.7098 0.44712,-18.2276 2.57151,-6.0445 8.46306,-11.9352 14.69049,-14.6883 4.82583,-2.1335 5.2168,-2.1184 13.40562,0.5171 9.31136,2.9967 14.92541,2.6966 21.83055,-1.167 2.99484,-1.6757 5.06498,-2.0154 7.72449,-1.2676 13.6476,3.8373 21.97173,14.2143 21.97173,27.3902 0,9.2938 -1.32524,9.8613 -16.99587,7.2779 -15.89209,-2.6199 -33.06218,-2.6977 -46.32322,-0.2099 -12.08353,2.2669 -14.76024,2.3268 -16.75091,0.3752 z m 31.18037,-35.3233 c -20.65074,-7.21856 -19.46251,-34.60396 1.7721,-40.84126 9.00738,-2.6457 20.0468,2.522 24.91886,11.665 2.33748,4.3866 2.30226,13.919 -0.0681,18.4128 -2.583,4.897 -8.78265,9.74436 -14.42914,11.28176 -5.87242,1.5989 -6.17346,1.5861 -12.19379,-0.5183 z"
         style="fill:#000000" />
      <path
         inkscape:tile-y0="893.45233"
         inkscape:tile-x0="140.81359"
         inkscape:connector-curvature="0"
         id="path4607"
         d="m 299.50872,529.69892 c -2.11779,-2.1178 -1.86306,-12.7098 0.43835,-18.2276 2.52109,-6.0445 8.29712,-11.9352 14.40244,-14.6883 4.73121,-2.1335 5.11451,-2.1184 13.14277,0.5171 9.12878,2.9967 14.63275,2.6966 21.4025,-1.167 2.93611,-1.6757 4.96566,-2.0154 7.57303,-1.2676 13.38,3.8373 21.54091,14.2143 21.54091,27.3902 0,9.2938 -1.29926,9.8613 -16.66262,7.2779 -15.58048,-2.6199 -32.4139,-2.6977 -45.41492,-0.2099 -11.8466,2.2669 -14.47082,2.3268 -16.42246,0.3752 z m 30.56899,-35.3233 c -20.24583,-7.21856 -19.08089,-34.60396 1.73735,-40.84126 8.83077,-2.6457 19.65373,2.522 24.43026,11.665 2.29164,4.3866 2.25711,13.919 -0.0668,18.4128 -2.53235,4.897 -8.61044,9.74436 -14.14621,11.28176 -5.75728,1.5989 -6.05242,1.5861 -11.9547,-0.5183 z"
         style="fill:#000000" />
      <path
         inkscape:tile-y0="893.45233"
         inkscape:tile-x0="140.81359"
         inkscape:connector-curvature="0"
         id="path4609"
         d="m 332.48011,191.14684 c -2.13897,-2.1178 -1.8817,-12.7098 0.44273,-18.2276 2.5463,-6.0445 8.38009,-11.9352 14.54646,-14.6883 4.77853,-2.1335 5.16566,-2.1184 13.2742,0.5171 9.22007,2.9967 14.77908,2.6966 21.61653,-1.167 2.96547,-1.6757 5.01531,-2.0154 7.64876,-1.2676 13.5138,3.8373 21.75632,14.2143 21.75632,27.3902 0,9.2938 -1.31226,9.8613 -16.82925,7.2779 -15.73629,-2.6199 -32.73804,-2.6977 -45.86907,-0.2099 -11.96507,2.2669 -14.61553,2.3268 -16.58668,0.3752 z m 30.87467,-35.3233 c -20.44828,-7.21856 -19.27169,-34.60396 1.75473,-40.84126 8.91908,-2.6457 19.85027,2.522 24.67456,11.665 2.31456,4.3866 2.27968,13.919 -0.0675,18.4128 -2.55767,4.897 -8.69654,9.74436 -14.28767,11.28176 -5.81485,1.5989 -6.11294,1.5861 -12.07425,-0.5183 z"
         style="fill:#000000" />
      <path
         style="fill:#000000"
         d="m 298.9408,352.41638 c -2.13897,-2.1178 -1.8817,-12.7098 0.44273,-18.2276 2.5463,-6.0445 8.38009,-11.9352 14.54646,-14.6883 4.77853,-2.1335 5.16566,-2.1184 13.2742,0.5171 9.22007,2.9967 14.77908,2.6966 21.61653,-1.167 2.96547,-1.6757 5.01531,-2.0154 7.64876,-1.2676 13.5138,3.8373 21.75632,14.2143 21.75632,27.3902 0,9.2938 -1.31226,9.8613 -16.82925,7.2779 -15.73629,-2.6199 -32.73804,-2.6977 -45.86907,-0.2099 -11.96507,2.2669 -14.61553,2.3268 -16.58668,0.3752 z m 30.87467,-35.3233 c -20.44828,-7.21856 -19.27169,-34.60396 1.75473,-40.84126 8.91908,-2.6457 19.85027,2.522 24.67456,11.665 2.31456,4.3866 2.27968,13.919 -0.0675,18.4128 -2.55767,4.897 -8.69654,9.74436 -14.28767,11.28176 -5.81485,1.5989 -6.11294,1.5861 -12.07425,-0.5183 z"
         id="path4611"
         inkscape:connector-curvature="0"
         inkscape:tile-x0="140.81359"
         inkscape:tile-y0="893.45233" />
      <path
         inkscape:tile-y0="893.45233"
         inkscape:tile-x0="140.81359"
         inkscape:connector-curvature="0"
         id="path4613"
         d="m 380.9408,352.41638 c -2.13897,-2.1178 -1.8817,-12.7098 0.44273,-18.2276 2.5463,-6.0445 8.38009,-11.9352 14.54646,-14.6883 4.77853,-2.1335 5.16566,-2.1184 13.2742,0.5171 9.22007,2.9967 14.77908,2.6966 21.61653,-1.167 2.96547,-1.6757 5.01531,-2.0154 7.64876,-1.2676 13.5138,3.8373 21.75632,14.2143 21.75632,27.3902 0,9.2938 -1.31226,9.8613 -16.82925,7.2779 -15.73629,-2.6199 -32.73804,-2.6977 -45.86907,-0.2099 -11.96507,2.2669 -14.61553,2.3268 -16.58668,0.3752 z m 30.87467,-35.3233 c -20.44828,-7.21856 -19.27169,-34.60396 1.75473,-40.84126 8.91908,-2.6457 19.85027,2.522 24.67456,11.665 2.31456,4.3866 2.27968,13.919 -0.0675,18.4128 -2.55767,4.897 -8.69654,9.74436 -14.28767,11.28176 -5.81485,1.5989 -6.11294,1.5861 -12.07425,-0.5183 z"
         style="fill:#000000" />
      <path
         style="fill:#000000"
         d="m 439.6934,428.41638 c -2.13897,-2.1178 -1.8817,-12.7098 0.44273,-18.2276 2.5463,-6.0445 8.38009,-11.9352 14.54646,-14.6883 4.77853,-2.1335 5.16566,-2.1184 13.2742,0.5171 9.22007,2.9967 14.77908,2.6966 21.61653,-1.167 2.96547,-1.6757 5.01531,-2.0154 7.64876,-1.2676 13.5138,3.8373 21.75632,14.2143 21.75632,27.3902 0,9.2938 -1.31226,9.8613 -16.82925,7.2779 -15.73629,-2.6199 -32.73804,-2.6977 -45.86907,-0.2099 -11.96507,2.2669 -14.61553,2.3268 -16.58668,0.3752 z m 30.87467,-35.3233 c -20.44828,-7.21856 -19.27169,-34.60396 1.75473,-40.84126 8.91908,-2.6457 19.85027,2.522 24.67456,11.665 2.31456,4.3866 2.27968,13.919 -0.0675,18.4128 -2.55767,4.897 -8.69654,9.74436 -14.28767,11.28176 -5.81485,1.5989 -6.11294,1.5861 -12.07425,-0.5183 z"
         id="path4615"
         inkscape:connector-curvature="0"
         inkscape:tile-x0="140.81359"
         inkscape:tile-y0="893.45233" />
      <path
         inkscape:tile-y0="893.45233"
         inkscape:tile-x0="140.81359"
         inkscape:connector-curvature="0"
         id="path4617"
         d="m 239.72752,428.41638 c -2.13897,-2.1178 -1.8817,-12.7098 0.44273,-18.2276 2.5463,-6.0445 8.38009,-11.9352 14.54646,-14.6883 4.77853,-2.1335 5.16566,-2.1184 13.2742,0.5171 9.22007,2.9967 14.77908,2.6966 21.61653,-1.167 2.96547,-1.6757 5.01531,-2.0154 7.64876,-1.2676 13.5138,3.8373 21.75632,14.2143 21.75632,27.3902 0,9.2938 -1.31226,9.8613 -16.82925,7.2779 -15.73629,-2.6199 -32.73804,-2.6977 -45.86907,-0.2099 -11.96507,2.2669 -14.61553,2.3268 -16.58668,0.3752 z m 30.87467,-35.3233 c -20.44828,-7.21856 -19.27169,-34.60396 1.75473,-40.84126 8.91908,-2.6457 19.85027,2.522 24.67456,11.665 2.31456,4.3866 2.27968,13.919 -0.0675,18.4128 -2.55767,4.897 -8.69654,9.74436 -14.28767,11.28176 -5.81485,1.5989 -6.11294,1.5861 -12.07425,-0.5183 z"
         style="fill:#000000" />
      <path
         inkscape:connector-curvature="0"
         id="path3449"
         d="m 388.11733,396.38925 0,-3.64429"
         style="fill:none;stroke:#000000;stroke-width:1px;stroke-linecap:butt;stroke-linejoin:miter;stroke-opacity:1" />
      <text
         transform="matrix(0.37969605,-1.0206953,0.79680389,0.49172492,0,0)"
         sodipodi:linespacing="125%"
         id="text4335"
         y="381.26443"
         x="-420.45148"
         style="font-size:40px;font-style:normal;font-variant:normal;font-weight:bold;font-stretch:normal;line-height:125%;letter-spacing:0px;word-spacing:0px;fill:#000000;fill-opacity:1;stroke:none;font-family:Sans;-inkscape-font-specification:Sans Bold"
         xml:space="preserve"><tspan
           y="381.26443"
           x="-420.45148"
           id="tspan4337"
           sodipodi:role="line">Middle</tspan></text>
      <text
         transform="matrix(0.31452295,-0.94924987,0.94924987,0.31452295,0,0)"
         sodipodi:linespacing="125%"
         id="text4339"
         y="321.31448"
         x="-745.80609"
         style="font-size:40px;font-style:normal;font-variant:normal;font-weight:bold;font-stretch:normal;line-height:125%;letter-spacing:0px;word-spacing:0px;fill:#000000;fill-opacity:1;stroke:none;font-family:Sans;-inkscape-font-specification:Sans Bold"
         xml:space="preserve"><tspan
           y="321.31448"
           x="-745.80609"
           id="tspan4341"
           sodipodi:role="line">Primary</tspan></text>
      <text
         inkscape:transform-center-y="-31.809494"
         inkscape:transform-center-x="52.653585"
         transform="matrix(0.33102146,-0.9017298,1.0048004,0.28379291,0,0)"
         sodipodi:linespacing="125%"
         id="text4343"
         y="329.58862"
         x="-1039.6398"
         style="font-size:40px;font-style:normal;font-variant:normal;font-weight:bold;font-stretch:normal;line-height:125%;letter-spacing:0px;word-spacing:0px;fill:#000000;fill-opacity:1;stroke:none;font-family:Sans;-inkscape-font-specification:Sans Bold"
         xml:space="preserve"><tspan
           y="329.58862"
           x="-1039.6398"
           id="tspan4345"
           sodipodi:role="line">Illiterate</tspan></text>
      <text
         sodipodi:linespacing="125%"
         id="text4377"
         y="166.43619"
         x="319.00269"
         style="font-size:70px;font-style:normal;font-variant:normal;font-weight:normal;font-stretch:normal;line-height:125%;letter-spacing:0px;word-spacing:0px;fill:#ff0000;fill-opacity:1;stroke:none;font-family:Droid Serif;-inkscape-font-specification:Droid Serif"
         xml:space="preserve"><tspan
           y="166.43619"
           x="319.00269"
           id="tspan4379"
           sodipodi:role="line" /><tspan
           id="tspan4381"
           y="253.93619"
           x="319.00269"
           sodipodi:role="line">4%</tspan></text>
      <text
         sodipodi:linespacing="125%"
         id="text4383"
         y="332.87238"
         x="301.66562"
         style="font-size:53.75px;font-style:normal;font-variant:normal;font-weight:normal;font-stretch:normal;line-height:125%;letter-spacing:0px;word-spacing:0px;fill:#ff0000;fill-opacity:1;stroke:none;font-family:Droid Serif;-inkscape-font-specification:Droid Serif"
         xml:space="preserve"><tspan
           y="332.87238"
           x="301.66562"
           id="tspan4385"
           sodipodi:role="line" /><tspan
           id="tspan4387"
           y="400.05988"
           x="301.66562"
           sodipodi:role="line">13.5%</tspan></text>
      <text
         sodipodi:linespacing="125%"
         id="text4389"
         y="507.97717"
         x="317.26901"
         style="font-size:70px;font-style:normal;font-variant:normal;font-weight:normal;font-stretch:normal;line-height:125%;letter-spacing:0px;word-spacing:0px;fill:#ff0000;fill-opacity:1;stroke:none;font-family:FreeSerif;-inkscape-font-specification:FreeSerif"
         xml:space="preserve"><tspan
           y="507.97717"
           x="317.26901"
           id="tspan4391"
           sodipodi:role="line" /><tspan
           id="tspan4393"
           y="595.47717"
           x="317.26901"
           sodipodi:role="line">15%</tspan></text>
      <text
         sodipodi:linespacing="125%"
         id="text4395"
         y="804.44159"
         x="321.66562"
         style="font-size:70px;font-style:normal;font-variant:normal;font-weight:normal;font-stretch:normal;line-height:125%;letter-spacing:0px;word-spacing:0px;fill:#ff0000;fill-opacity:1;stroke:none;font-family:FreeSerif;-inkscape-font-specification:FreeSerif"
         xml:space="preserve"><tspan
           y="804.44159"
           x="321.66562"
           id="tspan4397"
           sodipodi:role="line">31.8%</tspan></text>
      <text
         sodipodi:linespacing="125%"
         id="text4399"
         y="1022.8891"
         x="298.19818"
         style="font-size:70px;font-style:normal;font-variant:normal;font-weight:normal;font-stretch:normal;line-height:125%;letter-spacing:0px;word-spacing:0px;fill:#ff0000;fill-opacity:1;stroke:none;font-family:free serif;-inkscape-font-specification:free serif"
         xml:space="preserve"><tspan
           y="1022.8891"
           x="298.19818"
           id="tspan4401"
           sodipodi:role="line">35.7%</tspan></text>
      <path
         inkscape:connector-curvature="0"
         inkscape:connector-type="polyline"
         id="path4637"
         d="M 426.34664,45.417243 781.05794,1019.988"
         style="fill:#f20707;fill-opacity:1;fill-rule:evenodd;stroke:#2b0000;stroke-width:4.54251957;stroke-linecap:butt;stroke-linejoin:miter;stroke-miterlimit:4;stroke-opacity:1;stroke-dasharray:none;marker-end:url(#Arrow2Lend)" />
      <text
         transform="matrix(0.33381258,-0.94263946,0.94263946,0.33381258,0,0)"
         sodipodi:linespacing="125%"
         id="text5035"
         y="344.63312"
         x="-120.73152"
         style="font-size:40px;font-style:normal;font-variant:normal;font-weight:bold;font-stretch:normal;line-height:125%;letter-spacing:0px;word-spacing:0px;fill:#000000;fill-opacity:1;stroke:none;font-family:Sans;-inkscape-font-specification:Sans Bold"
         xml:space="preserve"><tspan
           y="344.63312"
           x="-120.73152"
           id="tspan5037"
           sodipodi:role="line">Graduate</tspan></text>
      <text
         transform="matrix(0.3048441,-0.7983345,1.0932077,0.41744148,0,0)"
         sodipodi:linespacing="125%"
         id="text5043"
         y="299.96432"
         x="-391.49277"
         style="font-size:40px;font-style:normal;font-variant:normal;font-weight:bold;font-stretch:normal;line-height:125%;letter-spacing:0px;word-spacing:0px;fill:#000000;fill-opacity:1;stroke:none;font-family:Sans;-inkscape-font-specification:Sans Bold"
         xml:space="preserve"><tspan
           y="299.96432"
           x="-391.49277"
           id="tspan5045"
           sodipodi:role="line">Secondary</tspan></text>
      <use
         x="0"
         y="0"
         inkscape:tiled-clone-of="#use4537"
         xlink:href="#use4537"
         transform="translate(160.77397,0)"
         id="use4003"
         width="744.09448"
         height="1052.3622" />
      <use
         x="0"
         y="0"
         inkscape:tiled-clone-of="#path4468"
         xlink:href="#path4468"
         transform="matrix(1.04,0,0,1,507.32834,-83.367635)"
         id="use4005"
         width="744.09448"
         height="1052.3622" />
    </g>
    <text
       xml:space="preserve"
       style="font-size:48px;font-style:normal;font-variant:normal;font-weight:normal;font-stretch:normal;line-height:125%;letter-spacing:0px;word-spacing:0px;fill:#000000;fill-opacity:1;stroke:none;font-family:Serif;-inkscape-font-specification:Serif"
       x="-83.659546"
       y="-64.676849"
       id="text4080"
       sodipodi:linespacing="125%"><tspan
         sodipodi:role="line"
         id="tspan4082"
         x="-83.659546"
         y="-64.676849"
         style="font-size:48px;font-style:normal;font-variant:normal;font-weight:bold;font-stretch:normal;font-family:Sans;-inkscape-font-specification:Sans Bold">Study on education level in a rural household</tspan><tspan
         sodipodi:role="line"
         x="-83.659546"
         y="-4.6768494"
         id="tspan4084"
         style="font-size:48px;font-style:normal;font-variant:normal;font-weight:bold;font-stretch:normal;font-family:Sans;-inkscape-font-specification:Sans Bold" /></text>
    <text
       xml:space="preserve"
       style="font-size:32px;font-style:normal;font-variant:normal;font-weight:normal;font-stretch:normal;line-height:125%;letter-spacing:0px;word-spacing:0px;fill:#000000;fill-opacity:1;stroke:none;font-family:Serif;-inkscape-font-specification:Serif"
       x="-700.92682"
       y="567.57129"
       id="text4086"
       sodipodi:linespacing="125%"><tspan
         sodipodi:role="line"
         id="tspan4088"
         x="-700.92682"
         y="567.57129" /></text>
    <text
       xml:space="preserve"
       style="font-size:34.79915619px;font-style:normal;font-variant:normal;font-weight:normal;font-stretch:normal;line-height:125%;letter-spacing:0px;word-spacing:0px;fill:#000000;fill-opacity:1;stroke:#090000;stroke-width:10.7197504;stroke-miterlimit:4;stroke-opacity:1;stroke-dasharray:none;font-family:Serif;-inkscape-font-specification:Serif"
       x="-83.979675"
       y="-54.588745"
       id="text4090"
       sodipodi:linespacing="125%"
       transform="scale(1.0874737,0.91956248)"><tspan
         sodipodi:role="line"
         id="tspan4092"
         x="-83.979675"
         y="-54.588745"
         style="stroke-width:10.7197504">__________________________________________________________________</tspan></text>
    <text
       xml:space="preserve"
       style="font-size:40px;font-style:normal;font-variant:normal;font-weight:bold;font-stretch:normal;text-align:end;line-height:125%;letter-spacing:0px;word-spacing:0px;text-anchor:end;fill:#000000;fill-opacity:1;stroke:none;font-family:Sans;-inkscape-font-specification:Sans Bold"
       x="1244.0698"
       y="51.728691"
       id="text4094"
       sodipodi:linespacing="125%"
       transform="scale(0.764747,1.307622)"><tspan
         sodipodi:role="line"
         id="tspan4096"
         x="1257.9761"
         y="51.728691"
         style="font-size:40px;text-align:end;text-anchor:end">Less than 4 of rural </tspan><tspan
         sodipodi:role="line"
         x="1257.9761"
         y="101.7287"
         id="tspan4128"
         style="font-size:40px;text-align:end;text-anchor:end">households have a </tspan><tspan
         sodipodi:role="line"
         x="1257.9761"
         y="151.7287"
         id="tspan4132"
         style="font-size:40px;text-align:end;text-anchor:end">family member </tspan><tspan
         sodipodi:role="line"
         x="1257.9761"
         y="201.7287"
         id="tspan4138"
         style="font-size:40px;text-align:end;text-anchor:end">who is at least </tspan><tspan
         sodipodi:role="line"
         x="1244.0698"
         y="251.7287"
         id="tspan4140"
         style="font-size:40px;text-align:end;text-anchor:end">a graduate</tspan></text>
    <text
       xml:space="preserve"
       style="font-size:32px;font-style:normal;font-variant:normal;font-weight:normal;font-stretch:normal;text-align:center;line-height:125%;letter-spacing:0px;word-spacing:0px;text-anchor:middle;fill:#000000;fill-opacity:1;stroke:none;font-family:Serif;-inkscape-font-specification:Serif"
       x="533.67249"
       y="1132.4604"
       id="text4148"
       sodipodi:linespacing="125%"><tspan
         sodipodi:role="line"
         id="tspan4150"
         x="539.23499"
         y="1132.4604"
         style="font-style:normal;font-variant:normal;font-weight:bold;font-stretch:normal;text-align:center;text-anchor:middle;font-family:Sans;-inkscape-font-specification:Sans Bold">Data from Socio Economic and Caste Census (SECC) </tspan><tspan
         sodipodi:role="line"
         x="533.67249"
         y="1172.4604"
         style="font-style:normal;font-variant:normal;font-weight:bold;font-stretch:normal;text-align:center;text-anchor:middle;font-family:Sans;-inkscape-font-specification:Sans Bold"
         id="tspan4152">on the standard of living of rural households in India</tspan></text>
  </g>
</svg>
