<?xml version="1.0" encoding="UTF-8" standalone="no"?>
<!-- Created with Inkscape (http://www.inkscape.org/) -->

<svg
   xmlns:dc="http://purl.org/dc/elements/1.1/"
   xmlns:cc="http://creativecommons.org/ns#"
   xmlns:rdf="http://www.w3.org/1999/02/22-rdf-syntax-ns#"
   xmlns:svg="http://www.w3.org/2000/svg"
   xmlns="http://www.w3.org/2000/svg"
   xmlns:xlink="http://www.w3.org/1999/xlink"
   xmlns:sodipodi="http://sodipodi.sourceforge.net/DTD/sodipodi-0.dtd"
   xmlns:inkscape="http://www.inkscape.org/namespaces/inkscape"
   width="210mm"
   height="297mm"
   id="svg4419"
   version="1.1"
   inkscape:version="0.91 r"
   sodipodi:docname="triangle.svg">
  <sodipodi:namedview
     inkscape:document-units="mm"
     id="base"
     pagecolor="#ffffff"
     bordercolor="#666666"
     borderopacity="1.0"
     inkscape:pageopacity="0.0"
     inkscape:pageshadow="2"
     inkscape:zoom="0.54880312"
     inkscape:cx="118.34536"
     inkscape:cy="515.78267"
     inkscape:current-layer="layer2"
     showgrid="false"
     inkscape:window-width="1525"
     inkscape:window-height="716"
     inkscape:window-x="63"
     inkscape:window-y="24"
     inkscape:window-maximized="0"
     inkscape:snap-text-baseline="false"
     inkscape:snap-others="true"
     inkscape:snap-to-guides="true"
     showguides="true"
     inkscape:guide-bbox="true">
    <sodipodi:guide
       position="-899.98082,59.18636"
       orientation="1,0"
       id="guide4359" />
  </sodipodi:namedview>
  <defs
     id="defs3">
    <marker
       inkscape:stockid="Arrow2Lend"
       orient="auto"
       refY="0.0"
       refX="0.0"
       id="Arrow2Lend"
       style="overflow:visible;"
       inkscape:isstock="true">
      <path
         id="path4242"
         style="fill-rule:evenodd;stroke-width:0.625;stroke-linejoin:round;stroke:#2b0000;stroke-opacity:1;fill:#2b0000;fill-opacity:1"
         d="M 8.7185878,4.0337352 L -2.2072895,0.016013256 L 8.7185884,-4.0017078 C 6.9730900,-1.6296469 6.9831476,1.6157441 8.7185878,4.0337352 z "
         transform="scale(1.1) rotate(180) translate(1,0)" />
    </marker>
    <marker
       inkscape:stockid="Arrow1Lend"
       orient="auto"
       refY="0.0"
       refX="0.0"
       id="marker4639"
       style="overflow:visible;"
       inkscape:isstock="true">
      <path
         id="path4641"
         d="M 0.0,0.0 L 5.0,-5.0 L -12.5,0.0 L 5.0,5.0 L 0.0,0.0 z "
         style="fill-rule:evenodd;stroke:#000000;stroke-width:1pt;stroke-opacity:1;fill:#000000;fill-opacity:1"
         transform="scale(0.8) rotate(180) translate(12.5,0)" />
    </marker>
    <marker
       inkscape:stockid="Arrow1Lend"
       orient="auto"
       refY="0.0"
       refX="0.0"
       id="Arrow1Lend"
       style="overflow:visible;"
       inkscape:isstock="true">
      <path
         id="path4224"
         d="M 0.0,0.0 L 5.0,-5.0 L -12.5,0.0 L 5.0,5.0 L 0.0,0.0 z "
         style="fill-rule:evenodd;stroke:#eb27bf;stroke-width:1pt;stroke-opacity:1;fill:#550000;fill-opacity:1"
         transform="scale(0.8) rotate(180) translate(12.5,0)" />
    </marker>
    <marker
       inkscape:stockid="Arrow1Lstart"
       orient="auto"
       refY="0.0"
       refX="0.0"
       id="Arrow1Lstart"
       style="overflow:visible"
       inkscape:isstock="true">
      <path
         id="path4221"
         d="M 0.0,0.0 L 5.0,-5.0 L -12.5,0.0 L 5.0,5.0 L 0.0,0.0 z "
         style="fill-rule:evenodd;stroke:#eb27bf;stroke-width:1pt;stroke-opacity:1;fill:#550000;fill-opacity:1"
         transform="scale(0.8) translate(12.5,0)" />
    </marker>
  </defs>
  <metadata
     id="metadata4">
    <rdf:RDF>
      <cc:Work
         rdf:about="">
        <dc:format>image/svg+xml</dc:format>
        <dc:type
           rdf:resource="http://purl.org/dc/dcmitype/StillImage" />
        <dc:title />
      </cc:Work>
    </rdf:RDF>
  </metadata>
  <g
     sodipodi:insensitive="true"
     id="layer1"
     inkscape:groupmode="layer"
     inkscape:label="Layer 1">
    <path
       transform="matrix(-1.0706802,-4.1089904,-2.52703,1.6339289,1113.9616,653.44767)"
       inkscape:transform-center-y="-466.00313"
       inkscape:transform-center-x="304.02197"
       d="M 152,301.36218 67.129514,408.74932 16.56476,281.55576 -33.999992,154.36219 101.43524,174.16861 236.87048,193.97504 z"
       inkscape:randomized="0"
       inkscape:rounded="-1.0460383e-14"
       inkscape:flatsided="false"
       sodipodi:arg2="1.7160097"
       sodipodi:arg1="0.66881216"
       sodipodi:r2="158.05061"
       sodipodi:r1="79.025307"
       sodipodi:cy="252.36218"
       sodipodi:cx="90"
       sodipodi:sides="3"
       id="path4425"
       style="fill:#ffffff;fill-rule:evenodd;stroke:#000000;stroke-width:1px;stroke-linecap:butt;stroke-linejoin:miter;stroke-opacity:1"
       sodipodi:type="star" />
  </g>
  <g
     inkscape:label="lines"
     id="layer2"
     inkscape:groupmode="layer">
    <path
       sodipodi:nodetypes="cc"
       inkscape:connector-curvature="0"
       inkscape:connector-type="polyline"
       id="path3032"
       d="m 74.601926,843.0379 609.314594,5.3146"
       style="fill:none;stroke:#000000;stroke-width:1.68540215px;stroke-linecap:butt;stroke-linejoin:miter;stroke-opacity:1" />
    <path
       sodipodi:nodetypes="cc"
       inkscape:connector-curvature="0"
       inkscape:connector-type="polyline"
       id="path3034"
       d="m 152,630.36218 454,4"
       style="fill:none;stroke:#000000;stroke-width:1px;stroke-linecap:butt;stroke-linejoin:miter;stroke-opacity:1" />
    <path
       sodipodi:nodetypes="cc"
       inkscape:connector-curvature="0"
       inkscape:connector-type="polyline"
       id="path3036"
       d="m 224,436.36218 306,2"
       style="fill:none;stroke:#000000;stroke-width:1px;stroke-linecap:butt;stroke-linejoin:miter;stroke-opacity:1" />
    <path
       inkscape:connector-curvature="0"
       inkscape:connector-type="polyline"
       id="path3038"
       d="m 272,252.36218 -2,-2"
       style="fill:none;stroke:#000000;stroke-width:1px;stroke-linecap:butt;stroke-linejoin:miter;stroke-opacity:1" />
    <path
       sodipodi:nodetypes="cc"
       inkscape:connector-curvature="0"
       inkscape:connector-type="polyline"
       id="path3040"
       d="m 280,266.36218 188,-2"
       style="fill:none;stroke:#000000;stroke-width:1px;stroke-linecap:butt;stroke-linejoin:miter;stroke-opacity:1" />
    <path
       style="fill:#000000"
       d="m 131.24047,1038.439 c -2.11779,-2.1178 -1.86306,-12.7098 0.43835,-18.2276 2.52109,-6.0445 8.29712,-11.9352 14.40244,-14.6883 4.73121,-2.1335 5.11451,-2.1184 13.14277,0.5171 9.12878,2.9967 14.63275,2.6966 21.4025,-1.167 2.93611,-1.6757 4.96566,-2.0154 7.57303,-1.2676 13.38,3.8373 21.54091,14.2143 21.54091,27.3902 0,9.2938 -1.29926,9.8613 -16.66262,7.2779 -15.58048,-2.6199 -32.4139,-2.6977 -45.41492,-0.2099 -11.8466,2.2669 -14.47082,2.3268 -16.42246,0.3752 z m 30.56899,-35.3233 c -20.24583,-7.21856 -19.08089,-34.60396 1.73735,-40.84126 8.83077,-2.6457 19.65373,2.522 24.43026,11.665 2.29164,4.3866 2.25711,13.919 -0.0668,18.4128 -2.53235,4.897 -8.61044,9.74436 -14.14621,11.28176 -5.75728,1.5989 -6.05242,1.5861 -11.9547,-0.5183 z"
       id="path4468"
       inkscape:connector-curvature="0"
       inkscape:tile-cx="180.78769"
       inkscape:tile-cy="932.5798"
       inkscape:tile-w="79.948196"
       inkscape:tile-h="78.25494"
       inkscape:tile-x0="140.81359"
       inkscape:tile-y0="893.45233" />
    <use
       x="0"
       y="0"
       inkscape:tiled-clone-of="#path4468"
       xlink:href="#path4468"
       id="use4502"
       transform="translate(125.44621,-85.467421)"
       width="100%"
       height="100%" />
    <use
       x="0"
       y="0"
       inkscape:tiled-clone-of="#path4468"
       xlink:href="#path4468"
       transform="translate(85.57283,0.07806673)"
       id="use4504"
       width="100%"
       height="100%" />
    <use
       x="0"
       y="0"
       inkscape:tiled-clone-of="#path4468"
       xlink:href="#path4468"
       transform="matrix(1.01,0,0,1,203.69673,-85.467421)"
       id="use4506"
       width="100%"
       height="100%" />
    <use
       x="0"
       y="0"
       inkscape:tiled-clone-of="#path4468"
       xlink:href="#path4468"
       transform="matrix(1.02,0,0,1,281.94728,-85.467421)"
       id="use4510"
       width="100%"
       height="100%" />
    <use
       x="0"
       y="0"
       inkscape:tiled-clone-of="#path4468"
       xlink:href="#path4468"
       transform="matrix(1.03,0,0,1,360.19781,-85.467421)"
       id="use4514"
       width="100%"
       height="100%" />
    <use
       x="0"
       y="0"
       inkscape:tiled-clone-of="#path4468"
       xlink:href="#path4468"
       transform="matrix(1.03,0,0,1,349.12308,-2.0997861)"
       id="use4516"
       width="100%"
       height="100%" />
    <use
       x="0"
       y="0"
       inkscape:tiled-clone-of="#path4468"
       xlink:href="#path4468"
       transform="matrix(1.04,0,0,1,438.44834,-85.467421)"
       id="use4518"
       width="100%"
       height="100%" />
    <use
       x="0"
       y="0"
       inkscape:tiled-clone-of="#path4468"
       xlink:href="#path4468"
       transform="matrix(1.04,0,0,1,429.19575,-3.9219333)"
       id="use4520"
       width="100%"
       height="100%" />
    <use
       height="100%"
       width="100%"
       transform="translate(45.446209,-85.467421)"
       id="use4531"
       xlink:href="#path4468"
       inkscape:tiled-clone-of="#path4468"
       y="0"
       x="0" />
    <use
       x="0"
       y="0"
       inkscape:tiled-clone-of="#path4468"
       xlink:href="#path4468"
       id="use4533"
       transform="translate(-34.553791,-85.467421)"
       width="100%"
       height="100%" />
    <use
       height="100%"
       width="100%"
       transform="translate(-87.53791,-0.35472609)"
       id="use4535"
       xlink:href="#path4468"
       inkscape:tiled-clone-of="#path4468"
       y="0"
       x="0" />
    <use
       height="100%"
       width="100%"
       transform="translate(15.008702,-201.8687)"
       id="use4537"
       xlink:href="#path4468"
       inkscape:tiled-clone-of="#path4468"
       y="0"
       x="0"
       inkscape:tile-cx="151.21258"
       inkscape:tile-cy="809.2427"
       inkscape:tile-w="79.948196"
       inkscape:tile-h="78.25494"
       inkscape:tile-x0="111.23849"
       inkscape:tile-y0="770.11523" />
    <use
       x="0"
       y="0"
       inkscape:tiled-clone-of="#use4537"
       xlink:href="#use4537"
       id="use4539"
       transform="translate(-6.1680542,-99.883716)"
       width="100%"
       height="100%" />
    <use
       x="0"
       y="0"
       inkscape:tiled-clone-of="#use4537"
       xlink:href="#use4537"
       transform="translate(80.773966,1.7938298)"
       id="use4541"
       width="100%"
       height="100%" />
    <use
       x="0"
       y="0"
       inkscape:tiled-clone-of="#use4537"
       xlink:href="#use4537"
       transform="matrix(1.01,0,0,1,72.153868,-101.70586)"
       id="use4543"
       width="100%"
       height="100%" />
    <use
       x="0"
       y="0"
       inkscape:tiled-clone-of="#use4537"
       xlink:href="#use4537"
       transform="matrix(1.02,0,0,1,153.8986,-105.35016)"
       id="use4547"
       width="100%"
       height="100%" />
    <use
       x="0"
       y="0"
       inkscape:tiled-clone-of="#use4537"
       xlink:href="#use4537"
       transform="matrix(1.02,0,0,1,404.61238,-109.35714)"
       id="use4549"
       width="100%"
       height="100%" />
    <use
       x="0"
       y="0"
       inkscape:tiled-clone-of="#use4537"
       xlink:href="#use4537"
       transform="matrix(1.03,0,0,1,237.4655,-105.35015)"
       id="use4551"
       width="100%"
       height="100%" />
    <use
       x="0"
       y="0"
       inkscape:tiled-clone-of="#use4537"
       xlink:href="#use4537"
       transform="matrix(1.03,0,0,1,335.11892,-0.02831731)"
       id="use4553"
       width="100%"
       height="100%" />
    <use
       x="0"
       y="0"
       inkscape:tiled-clone-of="#use4537"
       xlink:href="#use4537"
       transform="matrix(1.04,0,0,1,319.21022,-107.1723)"
       id="use4555"
       width="100%"
       height="100%" />
    <use
       x="0"
       y="0"
       inkscape:tiled-clone-of="#use4537"
       xlink:href="#use4537"
       transform="matrix(1.04,0,0,1,418.6858,1.7938296)"
       id="use4557"
       width="100%"
       height="100%" />
    <use
       height="100%"
       width="100%"
       id="use4561"
       transform="matrix(1.04,0,0,1,512.84005,-3.9219332)"
       xlink:href="#path4468"
       inkscape:tiled-clone-of="#path4468"
       y="0"
       x="0" />
    <path
       inkscape:tile-y0="893.45233"
       inkscape:tile-x0="140.81359"
       inkscape:connector-curvature="0"
       id="use4567"
       d="m 225.15639,526.59423 c -2.11779,-2.1178 -1.86306,-12.7098 0.43835,-18.2276 2.52109,-6.0445 8.29712,-11.9352 14.40244,-14.6883 4.73121,-2.1335 5.11451,-2.1184 13.14277,0.5171 9.12878,2.9967 14.63275,2.6966 21.4025,-1.167 2.93611,-1.6757 4.96566,-2.0154 7.57303,-1.2676 13.38,3.8373 21.54091,14.2143 21.54091,27.3902 0,9.2938 -1.29926,9.8613 -16.66262,7.2779 -15.58048,-2.6199 -32.4139,-2.6977 -45.41492,-0.2099 -11.8466,2.2669 -14.47082,2.3268 -16.42246,0.3752 z m 30.56899,-35.3233 c -20.24583,-7.21856 -19.08089,-34.60396 1.73735,-40.84126 8.83077,-2.6457 19.65373,2.522 24.43026,11.665 2.29164,4.3866 2.25711,13.919 -0.0668,18.4128 -2.53235,4.897 -8.61044,9.74436 -14.14621,11.28176 -5.75728,1.5989 -6.05242,1.5861 -11.9547,-0.5183 z"
       style="fill:#000000" />
    <path
       inkscape:tile-y0="893.45233"
       inkscape:tile-x0="140.81359"
       inkscape:connector-curvature="0"
       id="use4569"
       d="m 168.52797,622.62841 c -2.11779,-2.1178 -1.86306,-12.7098 0.43835,-18.2276 2.52109,-6.0445 8.29712,-11.9352 14.40244,-14.6883 4.73121,-2.1335 5.11451,-2.1184 13.14277,0.5171 9.12878,2.9967 14.63275,2.6966 21.4025,-1.167 2.93611,-1.6757 4.96566,-2.0154 7.57303,-1.2676 13.38,3.8373 21.54091,14.2143 21.54091,27.3902 0,9.2938 -1.29926,9.8613 -16.66262,7.2779 -15.58048,-2.6199 -32.4139,-2.6977 -45.41492,-0.2099 -11.8466,2.2669 -14.47082,2.3268 -16.42246,0.3752 z m 30.56899,-35.3233 c -20.24583,-7.21856 -19.08089,-34.60396 1.73735,-40.84126 8.83077,-2.6457 19.65373,2.522 24.43026,11.665 2.29164,4.3866 2.25711,13.919 -0.0668,18.4128 -2.53235,4.897 -8.61044,9.74436 -14.14621,11.28176 -5.75728,1.5989 -6.05242,1.5861 -11.9547,-0.5183 z"
       style="fill:#000000" />
    <path
       inkscape:tile-y0="893.45233"
       inkscape:tile-x0="140.81359"
       inkscape:connector-curvature="0"
       id="use4571"
       d="m 248.23276,623.16803 c -2.13897,-2.1178 -1.8817,-12.7098 0.44273,-18.2276 2.5463,-6.0445 8.38009,-11.9352 14.54646,-14.6883 4.77853,-2.1335 5.16566,-2.1184 13.2742,0.5171 9.22007,2.9967 14.77908,2.6966 21.61653,-1.167 2.96547,-1.6757 5.01531,-2.0154 7.64876,-1.2676 13.5138,3.8373 21.75632,14.2143 21.75632,27.3902 0,9.2938 -1.31226,9.8613 -16.82925,7.2779 -15.73629,-2.6199 -32.73804,-2.6977 -45.86907,-0.2099 -11.96507,2.2669 -14.61553,2.3268 -16.58668,0.3752 z m 30.87467,-35.3233 c -20.44828,-7.21856 -19.27169,-34.60396 1.75473,-40.84126 8.91908,-2.6457 19.85027,2.522 24.67456,11.665 2.31456,4.3866 2.27968,13.919 -0.0675,18.4128 -2.55767,4.897 -8.69654,9.74436 -14.28767,11.28176 -5.81485,1.5989 -6.11294,1.5861 -12.07425,-0.5183 z"
       style="fill:#000000" />
    <path
       inkscape:tile-y0="893.45233"
       inkscape:tile-x0="140.81359"
       inkscape:connector-curvature="0"
       id="use4573"
       d="m 468.57071,529.69892 c -2.13897,-2.1178 -1.8817,-12.7098 0.44273,-18.2276 2.5463,-6.0445 8.38009,-11.9352 14.54646,-14.6883 4.77853,-2.1335 5.16566,-2.1184 13.2742,0.5171 9.22007,2.9967 14.77908,2.6966 21.61653,-1.167 2.96547,-1.6757 5.01531,-2.0154 7.64876,-1.2676 13.5138,3.8373 21.75632,14.2143 21.75632,27.3902 0,9.2938 -1.31226,9.8613 -16.82925,7.2779 -15.73629,-2.6199 -32.73804,-2.6977 -45.86907,-0.2099 -11.96507,2.2669 -14.61553,2.3268 -16.58668,0.3752 z m 30.87467,-35.3233 c -20.44828,-7.21856 -19.27169,-34.60396 1.75473,-40.84126 8.91908,-2.6457 19.85027,2.522 24.67456,11.665 2.31456,4.3866 2.27968,13.919 -0.0675,18.4128 -2.55767,4.897 -8.69654,9.74436 -14.28767,11.28176 -5.81485,1.5989 -6.11294,1.5861 -12.07425,-0.5183 z"
       style="fill:#000000" />
    <path
       inkscape:tile-y0="893.45233"
       inkscape:tile-x0="140.81359"
       inkscape:connector-curvature="0"
       id="use4577"
       d="m 440.62696,626.27272 c -2.16014,-2.1178 -1.90032,-12.7098 0.44712,-18.2276 2.57151,-6.0445 8.46306,-11.9352 14.69049,-14.6883 4.82583,-2.1335 5.2168,-2.1184 13.40562,0.5171 9.31136,2.9967 14.92541,2.6966 21.83055,-1.167 2.99484,-1.6757 5.06498,-2.0154 7.72449,-1.2676 13.6476,3.8373 21.97173,14.2143 21.97173,27.3902 0,9.2938 -1.32524,9.8613 -16.99587,7.2779 -15.89209,-2.6199 -33.06218,-2.6977 -46.32322,-0.2099 -12.08353,2.2669 -14.76024,2.3268 -16.75091,0.3752 z m 31.18037,-35.3233 c -20.65074,-7.21856 -19.46251,-34.60396 1.7721,-40.84126 9.00738,-2.6457 20.0468,2.522 24.91886,11.665 2.33748,4.3866 2.30226,13.919 -0.0681,18.4128 -2.583,4.897 -8.78265,9.74436 -14.42914,11.28176 -5.87242,1.5989 -6.17346,1.5861 -12.19379,-0.5183 z"
       style="fill:#000000" />
    <path
       style="fill:#000000"
       d="m 382.89718,530.23853 c -2.13897,-2.1178 -1.8817,-12.7098 0.44273,-18.2276 2.5463,-6.0445 8.38009,-11.9352 14.54646,-14.6883 4.77853,-2.1335 5.16566,-2.1184 13.2742,0.5171 9.22007,2.9967 14.77908,2.6966 21.61653,-1.167 2.96547,-1.6757 5.01531,-2.0154 7.64876,-1.2676 13.5138,3.8373 21.75632,14.2143 21.75632,27.3902 0,9.2938 -1.31226,9.8613 -16.82925,7.2779 -15.73629,-2.6199 -32.73804,-2.6977 -45.86907,-0.2099 -11.96507,2.2669 -14.61553,2.3268 -16.58668,0.3752 z m 30.87467,-35.3233 c -20.44828,-7.21856 -19.27169,-34.60396 1.75473,-40.84126 8.91908,-2.6457 19.85027,2.522 24.67456,11.665 2.31456,4.3866 2.27968,13.919 -0.0675,18.4128 -2.55767,4.897 -8.69654,9.74436 -14.28767,11.28176 -5.81485,1.5989 -6.11294,1.5861 -12.07425,-0.5183 z"
       id="path4603"
       inkscape:connector-curvature="0"
       inkscape:tile-x0="140.81359"
       inkscape:tile-y0="893.45233" />
    <path
       style="fill:#000000"
       d="m 515.33838,628.09486 c -2.16014,-2.1178 -1.90032,-12.7098 0.44712,-18.2276 2.57151,-6.0445 8.46306,-11.9352 14.69049,-14.6883 4.82583,-2.1335 5.2168,-2.1184 13.40562,0.5171 9.31136,2.9967 14.92541,2.6966 21.83055,-1.167 2.99484,-1.6757 5.06498,-2.0154 7.72449,-1.2676 13.6476,3.8373 21.97173,14.2143 21.97173,27.3902 0,9.2938 -1.32524,9.8613 -16.99587,7.2779 -15.89209,-2.6199 -33.06218,-2.6977 -46.32322,-0.2099 -12.08353,2.2669 -14.76024,2.3268 -16.75091,0.3752 z m 31.18037,-35.3233 c -20.65074,-7.21856 -19.46251,-34.60396 1.7721,-40.84126 9.00738,-2.6457 20.0468,2.522 24.91886,11.665 2.33748,4.3866 2.30226,13.919 -0.0681,18.4128 -2.583,4.897 -8.78265,9.74436 -14.42914,11.28176 -5.87242,1.5989 -6.17346,1.5861 -12.19379,-0.5183 z"
       id="path4605"
       inkscape:connector-curvature="0"
       inkscape:tile-x0="140.81359"
       inkscape:tile-y0="893.45233" />
    <path
       style="fill:#000000"
       d="m 303.50872,528.41638 c -2.11779,-2.1178 -1.86306,-12.7098 0.43835,-18.2276 2.52109,-6.0445 8.29712,-11.9352 14.40244,-14.6883 4.73121,-2.1335 5.11451,-2.1184 13.14277,0.5171 9.12878,2.9967 14.63275,2.6966 21.4025,-1.167 2.93611,-1.6757 4.96566,-2.0154 7.57303,-1.2676 13.38,3.8373 21.54091,14.2143 21.54091,27.3902 0,9.2938 -1.29926,9.8613 -16.66262,7.2779 -15.58048,-2.6199 -32.4139,-2.6977 -45.41492,-0.2099 -11.8466,2.2669 -14.47082,2.3268 -16.42246,0.3752 z m 30.56899,-35.3233 c -20.24583,-7.21856 -19.08089,-34.60396 1.73735,-40.84126 8.83077,-2.6457 19.65373,2.522 24.43026,11.665 2.29164,4.3866 2.25711,13.919 -0.0668,18.4128 -2.53235,4.897 -8.61044,9.74436 -14.14621,11.28176 -5.75728,1.5989 -6.05242,1.5861 -11.9547,-0.5183 z"
       id="path4607"
       inkscape:connector-curvature="0"
       inkscape:tile-x0="140.81359"
       inkscape:tile-y0="893.45233" />
    <path
       style="fill:#000000"
       d="m 332.48011,191.14684 c -2.13897,-2.1178 -1.8817,-12.7098 0.44273,-18.2276 2.5463,-6.0445 8.38009,-11.9352 14.54646,-14.6883 4.77853,-2.1335 5.16566,-2.1184 13.2742,0.5171 9.22007,2.9967 14.77908,2.6966 21.61653,-1.167 2.96547,-1.6757 5.01531,-2.0154 7.64876,-1.2676 13.5138,3.8373 21.75632,14.2143 21.75632,27.3902 0,9.2938 -1.31226,9.8613 -16.82925,7.2779 -15.73629,-2.6199 -32.73804,-2.6977 -45.86907,-0.2099 -11.96507,2.2669 -14.61553,2.3268 -16.58668,0.3752 z m 30.87467,-35.3233 c -20.44828,-7.21856 -19.27169,-34.60396 1.75473,-40.84126 8.91908,-2.6457 19.85027,2.522 24.67456,11.665 2.31456,4.3866 2.27968,13.919 -0.0675,18.4128 -2.55767,4.897 -8.69654,9.74436 -14.28767,11.28176 -5.81485,1.5989 -6.11294,1.5861 -12.07425,-0.5183 z"
       id="path4609"
       inkscape:connector-curvature="0"
       inkscape:tile-x0="140.81359"
       inkscape:tile-y0="893.45233" />
    <path
       inkscape:tile-y0="893.45233"
       inkscape:tile-x0="140.81359"
       inkscape:connector-curvature="0"
       id="path4611"
       d="m 298.9408,352.41638 c -2.13897,-2.1178 -1.8817,-12.7098 0.44273,-18.2276 2.5463,-6.0445 8.38009,-11.9352 14.54646,-14.6883 4.77853,-2.1335 5.16566,-2.1184 13.2742,0.5171 9.22007,2.9967 14.77908,2.6966 21.61653,-1.167 2.96547,-1.6757 5.01531,-2.0154 7.64876,-1.2676 13.5138,3.8373 21.75632,14.2143 21.75632,27.3902 0,9.2938 -1.31226,9.8613 -16.82925,7.2779 -15.73629,-2.6199 -32.73804,-2.6977 -45.86907,-0.2099 -11.96507,2.2669 -14.61553,2.3268 -16.58668,0.3752 z m 30.87467,-35.3233 c -20.44828,-7.21856 -19.27169,-34.60396 1.75473,-40.84126 8.91908,-2.6457 19.85027,2.522 24.67456,11.665 2.31456,4.3866 2.27968,13.919 -0.0675,18.4128 -2.55767,4.897 -8.69654,9.74436 -14.28767,11.28176 -5.81485,1.5989 -6.11294,1.5861 -12.07425,-0.5183 z"
       style="fill:#000000" />
    <path
       style="fill:#000000"
       d="m 380.9408,352.41638 c -2.13897,-2.1178 -1.8817,-12.7098 0.44273,-18.2276 2.5463,-6.0445 8.38009,-11.9352 14.54646,-14.6883 4.77853,-2.1335 5.16566,-2.1184 13.2742,0.5171 9.22007,2.9967 14.77908,2.6966 21.61653,-1.167 2.96547,-1.6757 5.01531,-2.0154 7.64876,-1.2676 13.5138,3.8373 21.75632,14.2143 21.75632,27.3902 0,9.2938 -1.31226,9.8613 -16.82925,7.2779 -15.73629,-2.6199 -32.73804,-2.6977 -45.86907,-0.2099 -11.96507,2.2669 -14.61553,2.3268 -16.58668,0.3752 z m 30.87467,-35.3233 c -20.44828,-7.21856 -19.27169,-34.60396 1.75473,-40.84126 8.91908,-2.6457 19.85027,2.522 24.67456,11.665 2.31456,4.3866 2.27968,13.919 -0.0675,18.4128 -2.55767,4.897 -8.69654,9.74436 -14.28767,11.28176 -5.81485,1.5989 -6.11294,1.5861 -12.07425,-0.5183 z"
       id="path4613"
       inkscape:connector-curvature="0"
       inkscape:tile-x0="140.81359"
       inkscape:tile-y0="893.45233" />
    <path
       inkscape:tile-y0="893.45233"
       inkscape:tile-x0="140.81359"
       inkscape:connector-curvature="0"
       id="path4615"
       d="m 439.6934,440.45004 c -2.13897,-2.1178 -1.8817,-12.7098 0.44273,-18.2276 2.5463,-6.0445 8.38009,-11.9352 14.54646,-14.6883 4.77853,-2.1335 5.16566,-2.1184 13.2742,0.5171 9.22007,2.9967 14.77908,2.6966 21.61653,-1.167 2.96547,-1.6757 5.01531,-2.0154 7.64876,-1.2676 13.5138,3.8373 21.75632,14.2143 21.75632,27.3902 0,9.2938 -1.31226,9.8613 -16.82925,7.2779 -15.73629,-2.6199 -32.73804,-2.6977 -45.86907,-0.2099 -11.96507,2.2669 -14.61553,2.3268 -16.58668,0.3752 z m 30.87467,-35.3233 c -20.44828,-7.21856 -19.27169,-34.60396 1.75473,-40.84126 8.91908,-2.6457 19.85027,2.522 24.67456,11.665 2.31456,4.3866 2.27968,13.919 -0.0675,18.4128 -2.55767,4.897 -8.69654,9.74436 -14.28767,11.28176 -5.81485,1.5989 -6.11294,1.5861 -12.07425,-0.5183 z"
       style="fill:#000000" />
    <path
       style="fill:#000000"
       d="m 239.72752,428.41638 c -2.13897,-2.1178 -1.8817,-12.7098 0.44273,-18.2276 2.5463,-6.0445 8.38009,-11.9352 14.54646,-14.6883 4.77853,-2.1335 5.16566,-2.1184 13.2742,0.5171 9.22007,2.9967 14.77908,2.6966 21.61653,-1.167 2.96547,-1.6757 5.01531,-2.0154 7.64876,-1.2676 13.5138,3.8373 21.75632,14.2143 21.75632,27.3902 0,9.2938 -1.31226,9.8613 -16.82925,7.2779 -15.73629,-2.6199 -32.73804,-2.6977 -45.86907,-0.2099 -11.96507,2.2669 -14.61553,2.3268 -16.58668,0.3752 z m 30.87467,-35.3233 c -20.44828,-7.21856 -19.27169,-34.60396 1.75473,-40.84126 8.91908,-2.6457 19.85027,2.522 24.67456,11.665 2.31456,4.3866 2.27968,13.919 -0.0675,18.4128 -2.55767,4.897 -8.69654,9.74436 -14.28767,11.28176 -5.81485,1.5989 -6.11294,1.5861 -12.07425,-0.5183 z"
       id="path4617"
       inkscape:connector-curvature="0"
       inkscape:tile-x0="140.81359"
       inkscape:tile-y0="893.45233" />
    <text
       xml:space="preserve"
       style="font-style:normal;font-weight:normal;font-size:40px;line-height:125%;font-family:Sans;letter-spacing:0px;word-spacing:0px;fill:#4d4d4d;fill-opacity:1;stroke:none;stroke-width:1px;stroke-linecap:butt;stroke-linejoin:miter;stroke-opacity:1;"
       x="330"
       y="996.36218"
       id="text3383"
       sodipodi:linespacing="125%"><tspan
         sodipodi:role="line"
         x="330"
         y="996.36218"
         id="tspan3387" /><tspan
         sodipodi:role="line"
         x="330"
         y="1046.3622"
         id="tspan3395" /></text>
    <path
       style="fill:none;fill-rule:evenodd;stroke:#000000;stroke-width:1px;stroke-linecap:butt;stroke-linejoin:miter;stroke-opacity:1"
       d="m 388.11733,396.38925 0,-3.64429"
       id="path3449"
       inkscape:connector-curvature="0" />
    <path
       style="fill:#d40000;fill-rule:evenodd;stroke:#000000;stroke-width:1px;stroke-linecap:butt;stroke-linejoin:miter;stroke-opacity:1"
       d="M -526.60051,144.93296 Z"
       id="path3507"
       inkscape:connector-curvature="0" />
    <text
       xml:space="preserve"
       style="font-style:normal;font-weight:normal;font-size:40px;line-height:125%;font-family:Sans;letter-spacing:0px;word-spacing:0px;fill:#000000;fill-opacity:1;stroke:none;stroke-width:1px;stroke-linecap:butt;stroke-linejoin:miter;stroke-opacity:1"
       x="278.78851"
       y="192.30878"
       id="text4323"
       sodipodi:linespacing="125%"><tspan
         sodipodi:role="line"
         id="tspan4325"
         x="278.78851"
         y="192.30878" /></text>
    <text
       xml:space="preserve"
       style="font-style:normal;font-variant:normal;font-weight:normal;font-stretch:normal;font-size:40.00000009px;line-height:125%;font-family:'Bitstream Charter';-inkscape-font-specification:'Bitstream Charter';letter-spacing:0px;word-spacing:0px;fill:#000000;fill-opacity:1;stroke:none;stroke-width:1px;stroke-linecap:butt;stroke-linejoin:miter;stroke-opacity:1;"
       x="-413.60345"
       y="362.94095"
       id="text4335"
       sodipodi:linespacing="125%"
       transform="matrix(0.37969605,-1.0206953,0.79680389,0.49172492,0,0)"><tspan
         sodipodi:role="line"
         id="tspan4337"
         x="-413.60345"
         y="362.94095">Middle</tspan></text>
    <text
       xml:space="preserve"
       style="font-style:normal;font-variant:normal;font-weight:normal;font-stretch:normal;font-size:39.99999996px;line-height:125%;font-family:'Bitstream Charter';-inkscape-font-specification:'Bitstream Charter';letter-spacing:0px;word-spacing:0px;fill:#000000;fill-opacity:1;stroke:none;stroke-width:1px;stroke-linecap:butt;stroke-linejoin:miter;stroke-opacity:1;"
       x="-734.4151"
       y="317.54013"
       id="text4339"
       sodipodi:linespacing="125%"
       transform="matrix(0.31452295,-0.94924987,0.94924987,0.31452295,0,0)"><tspan
         sodipodi:role="line"
         id="tspan4341"
         x="-734.4151"
         y="317.54013">Primary</tspan></text>
    <text
       xml:space="preserve"
       style="font-style:normal;font-variant:normal;font-weight:normal;font-stretch:normal;font-size:40px;line-height:125%;font-family:'Bitstream Charter';-inkscape-font-specification:'Bitstream Charter';letter-spacing:0px;word-spacing:0px;fill:#000000;fill-opacity:1;stroke:none;stroke-width:1px;stroke-linecap:butt;stroke-linejoin:miter;stroke-opacity:1"
       x="-1003.6603"
       y="330.54321"
       id="text4343"
       sodipodi:linespacing="125%"
       transform="matrix(0.33102146,-0.9017298,1.0048004,0.28379291,0,0)"
       inkscape:transform-center-x="52.653585"
       inkscape:transform-center-y="-31.809494"><tspan
         sodipodi:role="line"
         id="tspan4345"
         x="-1003.6603"
         y="330.54321">Illiterate</tspan></text>
    <text
       xml:space="preserve"
       style="font-style:normal;font-variant:normal;font-weight:normal;font-stretch:normal;font-size:70px;line-height:125%;font-family:'Droid Serif';-inkscape-font-specification:'Droid Serif';letter-spacing:0px;word-spacing:0px;fill:#ff0000;fill-opacity:1;stroke:none;stroke-width:1px;stroke-linecap:butt;stroke-linejoin:miter;stroke-opacity:1"
       x="319.00269"
       y="166.43619"
       id="text4377"
       sodipodi:linespacing="125%"><tspan
         sodipodi:role="line"
         id="tspan4379"
         x="319.00269"
         y="166.43619" /><tspan
         sodipodi:role="line"
         x="319.00269"
         y="253.93619"
         id="tspan4381">4%</tspan></text>
    <text
       xml:space="preserve"
       style="font-style:normal;font-variant:normal;font-weight:normal;font-stretch:normal;font-size:53.75px;line-height:125%;font-family:'Droid Serif';-inkscape-font-specification:'Droid Serif';letter-spacing:0px;word-spacing:0px;fill:#ff0000;fill-opacity:1;stroke:none;stroke-width:1px;stroke-linecap:butt;stroke-linejoin:miter;stroke-opacity:1"
       x="301.66562"
       y="332.87238"
       id="text4383"
       sodipodi:linespacing="125%"><tspan
         sodipodi:role="line"
         id="tspan4385"
         x="301.66562"
         y="332.87238" /><tspan
         sodipodi:role="line"
         x="301.66562"
         y="400.05988"
         id="tspan4387">13.5%</tspan></text>
    <text
       xml:space="preserve"
       style="font-style:normal;font-variant:normal;font-weight:normal;font-stretch:normal;font-size:70px;line-height:125%;font-family:FreeSerif;-inkscape-font-specification:FreeSerif;letter-spacing:0px;word-spacing:0px;fill:#ff0000;fill-opacity:1;stroke:none;stroke-width:1px;stroke-linecap:butt;stroke-linejoin:miter;stroke-opacity:1"
       x="317.26901"
       y="507.97717"
       id="text4389"
       sodipodi:linespacing="125%"><tspan
         sodipodi:role="line"
         id="tspan4391"
         x="317.26901"
         y="507.97717" /><tspan
         sodipodi:role="line"
         x="317.26901"
         y="595.47717"
         id="tspan4393">15%</tspan></text>
    <text
       xml:space="preserve"
       style="font-style:normal;font-variant:normal;font-weight:normal;font-stretch:normal;font-size:70px;line-height:125%;font-family:FreeSerif;-inkscape-font-specification:FreeSerif;letter-spacing:0px;word-spacing:0px;fill:#ff0000;fill-opacity:1;stroke:none;stroke-width:1px;stroke-linecap:butt;stroke-linejoin:miter;stroke-opacity:1;"
       x="301.66562"
       y="804.44159"
       id="text4395"
       sodipodi:linespacing="125%"><tspan
         sodipodi:role="line"
         id="tspan4397"
         x="301.66562"
         y="804.44159">31.8%</tspan></text>
    <text
       xml:space="preserve"
       style="font-style:normal;font-variant:normal;font-weight:normal;font-stretch:normal;font-size:70px;line-height:125%;font-family:'free serif';-inkscape-font-specification:'free serif';letter-spacing:0px;word-spacing:0px;fill:#ff0000;fill-opacity:1;stroke:none;stroke-width:1px;stroke-linecap:butt;stroke-linejoin:miter;stroke-opacity:1"
       x="298.19818"
       y="1022.8891"
       id="text4399"
       sodipodi:linespacing="125%"><tspan
         sodipodi:role="line"
         id="tspan4401"
         x="298.19818"
         y="1022.8891">35.7%</tspan></text>
    <flowRoot
       xml:space="preserve"
       id="flowRoot4403"
       style="fill:black;stroke:none;stroke-opacity:1;stroke-width:1px;stroke-linejoin:miter;stroke-linecap:butt;fill-opacity:1;font-family:Sans;font-style:normal;font-weight:normal;font-size:60px;line-height:125%;letter-spacing:0px;word-spacing:0px;"><flowRegion
         id="flowRegion4405"><rect
           id="rect4407"
           width="55.478733"
           height="43.342758"
           x="353.67691"
           y="390.08484"
           style="font-size:60px;" /></flowRegion><flowPara
         id="flowPara4409" /></flowRoot>    <path
       style="fill:#2b0000;fill-rule:evenodd;stroke:#2b0000;stroke-width:4.54251969;stroke-linecap:butt;stroke-linejoin:miter;stroke-opacity:1;marker-end:url(#Arrow2Lend);stroke-miterlimit:4;stroke-dasharray:none"
       d="M 423.02533,38.141629 792.30565,1007.2857"
       id="path4637"
       inkscape:connector-type="polyline"
       inkscape:connector-curvature="0" />
    <text
       xml:space="preserve"
       style="font-style:normal;font-weight:normal;font-size:40px;line-height:125%;font-family:'Bitstream Charter';letter-spacing:0px;word-spacing:0px;fill:#000000;fill-opacity:1;stroke:none;stroke-width:1px;stroke-linecap:butt;stroke-linejoin:miter;stroke-opacity:1;-inkscape-font-specification:'Bitstream Charter';font-stretch:normal;font-variant:normal;"
       x="-128.50781"
       y="334.65668"
       id="text5035"
       sodipodi:linespacing="125%"
       transform="matrix(0.33381258,-0.94263946,0.94263946,0.33381258,0,0)"><tspan
         sodipodi:role="line"
         id="tspan5037"
         x="-128.50781"
         y="334.65668">Graduate</tspan></text>
    <text
       xml:space="preserve"
       style="font-style:normal;font-weight:normal;font-size:40px;line-height:125%;font-family:Sans;letter-spacing:0px;word-spacing:0px;fill:#000000;fill-opacity:1;stroke:none;stroke-width:1px;stroke-linecap:butt;stroke-linejoin:miter;stroke-opacity:1"
       x="-10.932883"
       y="168.62086"
       id="text5039"
       sodipodi:linespacing="125%"><tspan
         sodipodi:role="line"
         id="tspan5041"
         x="-10.932883"
         y="168.62086" /></text>
    <text
       xml:space="preserve"
       style="font-style:normal;font-variant:normal;font-weight:normal;font-stretch:normal;font-size:40px;line-height:125%;font-family:'Bitstream Charter';-inkscape-font-specification:'Bitstream Charter';letter-spacing:0px;word-spacing:0px;fill:#000000;fill-opacity:1;stroke:none;stroke-width:1px;stroke-linecap:butt;stroke-linejoin:miter;stroke-opacity:1"
       x="-393.79892"
       y="285.97153"
       id="text5043"
       sodipodi:linespacing="125%"
       transform="matrix(0.3048441,-0.79833449,1.0932077,0.41744148,0,0)"><tspan
         sodipodi:role="line"
         id="tspan5045"
         x="-393.79892"
         y="285.97153">Secondary</tspan></text>
  </g>
</svg>
